<?xml version="1.0" encoding="utf-8"?>
<!-- Generator: Adobe Illustrator 23.1.0, SVG Export Plug-In . SVG Version: 6.00 Build 0)  -->
<svg version="1.1" id="Layer_1" xmlns="http://www.w3.org/2000/svg" xmlns:xlink="http://www.w3.org/1999/xlink" x="0px" y="0px"
	 viewBox="0 0 512 512" style="enable-background:new 0 0 512 512;" xml:space="preserve">
<g>
	<g>
		<path d="M437.7,192.4h-32.1v-42.8C405.6,67.1,338.5,0,256,0S106.4,67.1,106.4,149.6v42.8H74.3c-5.9,0-10.7,4.8-10.7,10.7v267.2
			c0,23.6,19.2,42.8,42.8,42.8h299.3c23.6,0,42.8-19.2,42.8-42.8V203.1C448.4,197.2,443.6,192.4,437.7,192.4z M288,415.7
			c0.3,3-0.6,6-2.7,8.3c-2,2.3-4.9,3.6-8,3.6h-42.8c-3,0-5.9-1.3-8-3.6c-2-2.3-3-5.3-2.7-8.3l6.7-60.6c-11-8-17.5-20.6-17.5-34.4
			c0-23.6,19.2-42.8,42.8-42.8s42.8,19.2,42.8,42.8c0,13.8-6.5,26.4-17.5,34.4L288,415.7z M341.5,192.4h-171v-42.8
			c0-47.2,38.4-85.5,85.5-85.5s85.5,38.4,85.5,85.5V192.4z"/>
	</g>
</g>
</svg>
