<?xml version="1.0" encoding="utf-8"?>
<!-- Generator: Adobe Illustrator 23.1.0, SVG Export Plug-In . SVG Version: 6.00 Build 0)  -->
<svg version="1.1" id="Layer_1" xmlns="http://www.w3.org/2000/svg" xmlns:xlink="http://www.w3.org/1999/xlink" x="0px" y="0px"
	 viewBox="0 0 512 512" style="enable-background:new 0 0 512 512;" xml:space="preserve">
<g>
	<path d="M403.2,105.9l32.1-32.1c5.9-5.9,5.9-15.4,0-21.2c-5.9-5.9-15.4-5.9-21.2,0L382,84.7c-5.9,5.9-5.9,15.4,0,21.2
		C387.8,111.8,397.3,111.8,403.2,105.9z"/>
	<path d="M472.9,176.7h-32.1c-8.3,0-15,6.7-15,15s6.7,15,15,15h32.1c8.3,0,15-6.7,15-15S481.2,176.7,472.9,176.7z"/>
	<path d="M296.2,62.1c8.3,0,15-6.7,15-15V15c0-8.3-6.7-15-15-15s-15,6.7-15,15v32.1C281.2,55.4,287.9,62.1,296.2,62.1z"/>
	<path d="M28.5,373.9c-5.9,5.9-5.9,15.4,0,21.2l64.3,64.3c5.9,5.9,15.4,5.9,21.2,0l25.1-25.1l-85.5-85.5L28.5,373.9z"/>
	<path d="M288.2,386l-105.3,49.6l72,72c5.9,5.9,15.4,5.9,21.2,0l56.2-56.2c5.9-5.9,5.9-15.4,0-21.2L288.2,386z"/>
	<path d="M226.4,52.6c-3.5-3.5-8.4-5-13.2-4.2c-4.8,0.8-8.9,4-11,8.4L74.8,327.6l85.5,85.5l270.8-127.4c4.4-2.1,7.5-6.2,8.4-11
		s-0.7-9.7-4.2-13.2L226.4,52.6z"/>
</g>
</svg>
