<?xml version="1.0" encoding="utf-8"?>
<!-- Generator: Adobe Illustrator 23.1.0, SVG Export Plug-In . SVG Version: 6.00 Build 0)  -->
<svg version="1.1" baseProfile="basic" id="Layer_1"
	 xmlns="http://www.w3.org/2000/svg" xmlns:xlink="http://www.w3.org/1999/xlink" x="0px" y="0px" viewBox="0 0 512 512"
	 xml:space="preserve">
<g>
	<g>
		<path d="M383.6,0H128C57.7,0,0,57.7,0,128.4V384c0,70.3,57.7,128,128,128h255.6c70.7,0,128.4-57.7,128.4-128.4V128.4
			C512,57.7,454.3,0,383.6,0z M409.2,340.1c-1.2,2.4-4.1,4.9-8.9,7.3c-6.5,3.3-16.7,5.7-30.1,7.7c-1.2,0.4-2.4,1.2-3.3,2.4
			c-0.8,1.2-1.2,4.1-2,7.7l-0.4,2c-0.4,1.6-0.8,3.7-1.2,5.3c-0.8,2-2,3.3-4.5,3.3c-1.2,0-3.3,0-6.5-0.8c-4.5-0.8-10.2-2-17.5-2
			c-4.5,0-8.5,0.4-12.6,1.2c-8.5,1.6-16.3,6.5-24.4,12.2c-11,7.7-23.2,16.7-41.9,16.7c-0.8,0-1.6,0-2,0c-0.4,0-0.4,0-0.8,0
			s-0.8,0-0.8,0c-18.7,0-30.9-8.9-42.3-16.7c-7.7-5.3-15-10.6-24-12.2c-4.1-0.8-8.5-1.2-12.6-1.2c-7.3,0-13,1.2-17.1,2H156
			c-2,0.4-4.5,0.8-6.5,0.8c-2.4,0-4.1-0.8-4.9-3.3c-1.6-2.8-2.4-4.9-2.8-6.9l-0.4-1.2c-0.8-3.3-1.2-6.1-2.4-7.7
			c-0.4-1.2-1.6-2-2.8-2c-13.4-2-23.6-4.9-30.5-7.7c-4.5-2-7.7-4.5-8.9-6.9c-0.4-0.8-0.4-1.6-0.4-2s0-0.4,0-0.8
			c1.6-1.6,2.4-2.4,3.7-2.8c10.6-1.6,20.3-5.7,28.9-11.4c7.3-4.5,14.2-10.6,20.3-17.9c10.6-12.2,15.8-24,16.7-26v-0.4
			c2.8-5.3,3.3-10.2,1.6-13.8c-3.3-7.3-13-10.6-19.9-12.6l-1.2-0.4c-1.2-0.4-2.4-0.8-3.3-1.2c-4.9-2-8.5-4.1-10.6-6.1
			c-3.3-2.8-3.7-5.7-3.3-7.3c0.4-2,2-4.5,4.9-6.1c3.7-2,8.5-2.8,11.4-1.2c9.3,4.5,17.1,5.7,22.8,2.8c1.6-0.8,2.4-2.4,2.4-4.1
			c0-2.4-0.4-4.9-0.4-7.3v-0.4c-1.2-21.1-2.8-47.5,3.7-62.6c4.9-10.6,11-19.5,18.7-26.8c6.5-6.1,13.8-11,22.3-14.6
			c14.6-6.5,28-7.3,34.9-7.3h6.1c6.9,0,20.3,0.8,34.9,7.3c8.5,3.7,15.8,8.5,22.3,14.6c7.7,7.3,14.2,16.3,18.7,26.8
			c6.9,15,4.9,41.4,3.7,62.2v1.2c0,1.6-0.4,2.8-0.4,4.5v2c0,1.6,0.8,3.3,2.4,4.1s3.7,1.2,5.7,1.2c0,0,0.4,0,0.8,0
			c4.5-0.4,9.3-1.6,14.6-4.1c2-0.8,4.1-0.8,4.9-0.8c2,0,3.7,0.4,5.7,1.2c4.5,1.6,7.7,4.9,7.7,8.1c0,1.2-0.4,3.3-2.8,5.7
			c-2.4,2.4-6.1,4.5-11.4,6.9c-0.8,0.4-2,0.8-2.8,0.8l-1.2,0.4c-6.5,2-16.7,5.3-19.9,12.6c-1.6,3.7-1.2,8.5,1.6,14.2
			c0,0.4,0,0.4,0.4,0.8c3.7,8.1,24,47.9,65.8,54.9c1.6,0.4,2.8,1.6,2.8,3.7C409.6,338.9,409.2,339.7,409.2,340.1z"/>
	</g>
</g>
</svg>
