<?xml version="1.0" encoding="iso-8859-1"?>
<!-- Generator: Adobe Illustrator 19.0.0, SVG Export Plug-In . SVG Version: 6.00 Build 0)  -->
<svg version="1.1" id="Capa_1" xmlns="http://www.w3.org/2000/svg" xmlns:xlink="http://www.w3.org/1999/xlink" x="0px" y="0px"
	 viewBox="0 0 512 512" style="enable-background:new 0 0 512 512;" xml:space="preserve">
<g>
	<g>
		<path d="M491.948,35.426H20.052C8.977,35.426,0,44.402,0,55.478v319.499c0,11.076,8.977,20.052,20.052,20.052H354.57
			l126.824,78.545c3.222,1.999,6.885,3.001,10.554,3.001c3.355,0,6.711-0.842,9.759-2.533c6.35-3.536,10.293-10.24,10.293-17.519
			V55.478C512,44.402,503.023,35.426,491.948,35.426z M471.889,420.515l-101.063-62.59c-3.168-1.965-6.824-3.001-10.554-3.001
			H40.104V75.53h431.784V420.515z"/>
	</g>
</g>
<g>
	<g>
		<path d="M369.629,142.371H135.687c-11.076,0-20.052,8.977-20.052,20.052s8.977,20.052,20.052,20.052h233.943
			c11.076,0,20.052-8.977,20.052-20.052S380.705,142.371,369.629,142.371z"/>
	</g>
</g>
<g>
	<g>
		<path d="M369.629,242.632H135.687c-11.076,0-20.052,8.977-20.052,20.052s8.977,20.052,20.052,20.052h233.943
			c11.076,0,20.052-8.977,20.052-20.052S380.705,242.632,369.629,242.632z"/>
	</g>
</g>
<g>
</g>
<g>
</g>
<g>
</g>
<g>
</g>
<g>
</g>
<g>
</g>
<g>
</g>
<g>
</g>
<g>
</g>
<g>
</g>
<g>
</g>
<g>
</g>
<g>
</g>
<g>
</g>
<g>
</g>
</svg>
