<?xml version="1.0" encoding="utf-8"?>
<!-- Generator: Adobe Illustrator 23.1.0, SVG Export Plug-In . SVG Version: 6.00 Build 0)  -->
<svg version="1.1" id="Layer_1" xmlns="http://www.w3.org/2000/svg" xmlns:xlink="http://www.w3.org/1999/xlink" x="0px" y="0px"
	 viewBox="0 0 512 512" style="enable-background:new 0 0 512 512;" xml:space="preserve">
<g>
	<path d="M256,0c-56.2,0-101.9,45.7-101.9,101.9c0,2.4,0.1,4.8,0.3,7.2h25.5c-0.3-2.4-0.4-4.8-0.4-7.2c0-42.1,34.3-76.4,76.4-76.4
		s76.4,34.3,76.4,76.4c0,2.4-0.1,4.8-0.4,7.2h25.5c0.2-2.4,0.3-4.8,0.3-7.2C357.9,45.7,312.2,0,256,0z"/>
	<path d="M452.1,460.3c0,28.4-23.3,51.7-51.7,51.7H111.6c-28.4,0-51.7-23.3-51.7-51.7L90,145.6c0-28.5,23.3-36.5,51.8-36.5h228.4
		c28.5,0,51.8,8,51.8,36.5L452.1,460.3z"/>
</g>
</svg>
