<?xml version="1.0" encoding="utf-8"?>
<!-- Generator: Adobe Illustrator 23.1.0, SVG Export Plug-In . SVG Version: 6.00 Build 0)  -->
<svg version="1.1" baseProfile="basic" id="Layer_1"
	 xmlns="http://www.w3.org/2000/svg" xmlns:xlink="http://www.w3.org/1999/xlink" x="0px" y="0px" viewBox="0 0 512 512"
	 xml:space="preserve">
<g>
	<g>
		<path d="M256,0C114.8,0,0,114.8,0,256s114.8,256,256,256s256-114.8,256-256S397.2,0,256,0z M359.5,329.4c4.2,4.2,4.2,10.9,0,15.1
			l-15.1,15.1c-4.2,4.2-10.9,4.2-15.1,0L256,286.2l-73.4,73.4c-4.2,4.2-10.9,4.2-15.1,0l-15.1-15.1c-4.2-4.2-4.2-10.9,0-15.1
			l73.4-73.4l-73.4-73.4c-4.2-4.2-4.2-10.9,0-15.1l15.1-15.1c4.2-4.2,10.9-4.2,15.1,0l73.4,73.4l73.4-73.4c4.2-4.2,10.9-4.2,15.1,0
			l15.1,15.1c4.2,4.2,4.2,10.9,0,15.1L286.2,256L359.5,329.4z"/>
	</g>
</g>
</svg>
