<?xml version="1.0" encoding="utf-8"?>
<!-- Generator: Adobe Illustrator 23.1.0, SVG Export Plug-In . SVG Version: 6.00 Build 0)  -->
<svg version="1.1" baseProfile="basic" xmlns="http://www.w3.org/2000/svg" xmlns:xlink="http://www.w3.org/1999/xlink" x="0px"
	 y="0px" viewBox="0 0 512 512" xml:space="preserve">
<g id="Layer_1" display="none">
	
		<image display="inline" overflow="visible" width="1920" height="1170" xlink:href="6C5A7288.jpg"  transform="matrix(0.7191 0.6949 -0.6949 0.7191 20.901 -618.6135)">
	</image>
</g>
<g id="Layer_2">
</g>
<g id="Layer_3">
	<g>
		<linearGradient id="SVGID_1_" gradientUnits="userSpaceOnUse" x1="161.1152" y1="204.0825" x2="206.4749" y2="232.9478">
			<stop  offset="7.102510e-02" style="stop-color:#CC9DFE"/>
			<stop  offset="0.4609" style="stop-color:#9144F9"/>
			<stop  offset="1" style="stop-color:#7F4FFF"/>
		</linearGradient>
		<path fill="url(#SVGID_1_)" d="M255.1,295.9c-0.1,0.1-0.1,0.1-0.1,0.2L221.9,263c-9.2-9.2-20.2-15.3-32-18.4
			c-3.2-0.9-6.5-1.5-9.9-1.9c-3.7-0.4-7.3-0.6-11-0.4c-5.1,0.2-10.3,0.9-15.3,2.2c-1.9-19,4.4-38.7,18.9-53.2l15.4-15.4
			c-0.4,0.5-0.9,1-1.3,1.5c-0.5,0.6-1,1.3-1.5,2c-0.3,0.5-0.7,0.9-1,1.4c0,0,0,0.1,0,0.1c-0.4,0.5-0.8,1.1-1.1,1.6
			c-0.2,0.3-0.4,0.6-0.6,0.9c-0.5,3.4-0.8,6.8-0.8,10.2c0,0.5,0,1,0,1.4c0,2.1,0.2,4.1,0.4,6.2c0,0.3,0.1,0.7,0.1,1
			c0,0.2,0,0.5,0.1,0.7c0.1,0.4,0.1,0.8,0.2,1.2c0.1,0.9,0.3,1.7,0.5,2.6c0.1,0.5,0.2,1,0.3,1.4c0.1,0.4,0.2,0.7,0.3,1.1
			c0.2,1,0.5,1.9,0.8,2.9c0.1,0.3,0.2,0.6,0.3,0.9c0.3,0.9,0.6,1.9,0.9,2.8c0.1,0.4,0.3,0.9,0.5,1.3c0.1,0.3,0.2,0.6,0.3,0.9
			c1.5,4,3.5,7.8,5.8,11.4c0.2,0.3,0.4,0.7,0.7,1c0.8,1.2,1.6,2.3,2.4,3.4c0.3,0.4,0.5,0.7,0.8,1.1c0.3,0.4,0.6,0.8,0.9,1.1
			c0.3,0.4,0.7,0.8,1,1.2c1.1,1.3,2.2,2.5,3.4,3.7l2,2c0.6,1.3,1.4,2.5,2.4,3.5l48.9,48.9C254.7,295.6,254.9,295.8,255.1,295.9z"/>
		<linearGradient id="SVGID_2_" gradientUnits="userSpaceOnUse" x1="361.9458" y1="273.854" x2="332.4258" y2="249.374">
			<stop  offset="7.102510e-02" style="stop-color:#D3AAFE"/>
			<stop  offset="0.4609" style="stop-color:#9144F9"/>
			<stop  offset="1" style="stop-color:#7F4FFF"/>
		</linearGradient>
		<path fill="url(#SVGID_2_)" d="M353.5,284.8l-19,19c1.9-2.2,3.7-4.5,5.4-7c0.5-1.9,0.9-3.9,1.2-5.8c0-0.3,0.1-0.6,0.1-0.9
			c0.1-0.4,0.1-0.9,0.2-1.3c0.1-0.6,0.1-1.1,0.2-1.7c0-0.4,0.1-0.7,0.1-1.1c0-0.4,0.1-0.8,0.1-1.1c0.1-0.6,0.1-1.2,0.1-1.8
			c0-0.4,0-0.9,0-1.3c0-0.5,0-1,0-1.5v-0.1c0-0.3,0-0.6,0-0.9c0-0.2,0-0.5,0-0.7c0-0.3,0-0.6,0-1c0-0.5,0-0.9,0-1.4
			c0-0.4,0-0.8-0.1-1.2c0-0.5-0.1-1.1-0.1-1.6c-0.1-0.8-0.1-1.6-0.2-2.4c-0.1-0.6-0.2-1.2-0.3-1.8c-0.1-0.8-0.3-1.7-0.4-2.5
			c-0.1-0.6-0.2-1.2-0.4-1.8c-0.1-0.4-0.2-0.8-0.3-1.2c-0.2-1-0.5-2-0.7-2.9c-0.2-0.6-0.3-1.1-0.5-1.7c-0.3-1.2-0.7-2.3-1.1-3.4
			c-0.2-0.5-0.3-0.9-0.5-1.3c-0.1-0.4-0.3-0.8-0.5-1.2c-0.2-0.5-0.4-1-0.6-1.5c-0.3-0.6-0.5-1.2-0.8-1.8c-0.3-0.6-0.6-1.2-0.9-1.8
			c-0.3-0.5-0.5-1-0.8-1.5c-0.4-0.7-0.7-1.3-1.1-2c-0.3-0.5-0.5-0.9-0.8-1.4c-0.4-0.7-0.9-1.5-1.3-2.2c-0.3-0.4-0.6-0.9-0.9-1.3
			c0,0,0-0.1-0.1-0.1c-0.4-0.5-0.7-1.1-1.1-1.6c-2.2-3-4.6-5.8-7.2-8.5l-11.1-11.1c0.8,0.6,1.7,1.3,2.6,1.8c0.3,0.3,0.7,0.5,1.1,0.7
			c0.2,0.1,0.4,0.3,0.6,0.4c0.3,0.2,0.6,0.4,0.9,0.6c0.6,0.4,1.3,0.8,1.9,1.1c0.1,0.1,0.2,0.1,0.4,0.2c0.5,0.3,1,0.6,1.5,0.8
			c0.1,0.1,0.3,0.2,0.4,0.2c0.4,0.2,0.7,0.4,1.1,0.6c0.1,0.1,0.2,0.1,0.3,0.2c0.1,0,0.2,0.1,0.3,0.1c0.3,0.1,0.6,0.3,0.8,0.4
			c0.6,0.3,1.2,0.6,1.8,0.8c0.1,0,0.1,0,0.2,0.1c0.1,0,0.1,0.1,0.2,0.1c0.6,0.3,1.1,0.5,1.7,0.7c0,0,0,0,0,0
			c0.2,0.1,0.5,0.2,0.8,0.3c0,0,0.1,0,0.1,0c0.4,0.2,0.8,0.3,1.1,0.4c0.4,0.2,0.9,0.3,1.3,0.5c1.3,0.5,2.6,0.9,3.9,1.2
			c0.4,0.1,0.9,0.3,1.3,0.4c0.4,0.1,0.8,0.2,1.3,0.3c0,0,0.1,0,0.1,0c0.6,0.1,1.2,0.3,1.8,0.4c0.6,0.1,1.3,0.3,1.9,0.4
			c0,0,0.1,0,0.1,0c0.2,0,0.5,0.1,0.7,0.1c0.1,0,0.2,0,0.2,0c0.6,0.1,1.1,0.2,1.7,0.3c0.8,0.1,1.5,0.2,2.3,0.3
			c0.6,0.1,1.2,0.1,1.8,0.2c0.1,0,0.2,0,0.3,0c0.3,0,0.5,0,0.8,0.1c0.4,0,0.8,0.1,1.1,0.1c0.3,0,0.6,0,0.9,0.1h0.1
			c0.5,0,1.1,0,1.6,0c0.1,0,0.3,0,0.4,0c0.7,0,1.5,0,2.2,0c0.8,0,1.6,0,2.3-0.1c5.4-0.3,10.8-1.1,16.1-2.6
			C374.7,249.3,368.4,269.8,353.5,284.8z"/>
		<linearGradient id="SVGID_3_" gradientUnits="userSpaceOnUse" x1="254.8018" y1="114.8059" x2="262.0018" y2="165.9259">
			<stop  offset="0.234" style="stop-color:#FAE888"/>
			<stop  offset="0.6508" style="stop-color:#FEA50F"/>
			<stop  offset="1" style="stop-color:#F0DE83"/>
		</linearGradient>
		<path fill="url(#SVGID_3_)" d="M328.7,166.7c-3.2-2.8-6.6-5.4-10.3-7.6c-19-3.6-39.2,0.9-54.9,13.6c-1.8,1.5-3.5,3-5.2,4.7
			l-1.9,1.9c-0.6,0.4-1.3,0.9-1.8,1.5l-19,19c0.9-0.9,1.8-1.9,2.7-2.9c0.4-0.5,0.9-1,1.3-1.5c0.3-0.4,0.6-0.7,0.9-1.1
			c0.2-0.2,0.3-0.4,0.4-0.5c0.4-0.5,0.7-0.9,1.1-1.4c0.3-0.4,0.7-0.9,1-1.3c0.1-0.1,0.2-0.3,0.3-0.4c0.2-0.3,0.4-0.6,0.6-0.9
			c0.2-0.3,0.4-0.5,0.5-0.8c0.3-0.4,0.6-0.8,0.8-1.2c0,0,0.1-0.1,0.1-0.2c0.3-0.4,0.5-0.8,0.8-1.2c0.2-0.3,0.4-0.6,0.6-1
			c0.1-0.1,0.2-0.3,0.2-0.4c0.3-0.5,0.6-1.1,0.9-1.6c0.3-0.5,0.6-1,0.8-1.6c0.1-0.1,0.1-0.3,0.2-0.4c0.2-0.3,0.3-0.7,0.5-1
			c0.2-0.3,0.3-0.7,0.5-1c1-2.3,2-4.6,2.8-7c0.2-0.6,0.4-1.3,0.6-1.9c0.1-0.2,0.1-0.4,0.2-0.6c0.2-0.8,0.4-1.5,0.6-2.3
			c0.2-0.8,0.4-1.6,0.6-2.4c0.2-0.8,0.3-1.5,0.5-2.3c0,0,0-0.1,0-0.1c0-0.2,0.1-0.4,0.1-0.7c0.1-0.4,0.2-0.8,0.2-1.3
			c0-0.2,0.1-0.4,0.1-0.7c0.1-0.4,0.1-0.9,0.2-1.3c0-0.1,0-0.1,0-0.2c0.1-0.4,0.1-0.9,0.2-1.3c0.1-0.7,0.1-1.4,0.2-2.1
			c0-0.1,0-0.1,0-0.2v0c0-0.1,0-0.2,0-0.2c0-0.3,0-0.5,0.1-0.8c0-0.4,0-0.8,0.1-1.3c0-0.1,0-0.1,0-0.2c0-0.2,0-0.4,0-0.6
			c0-0.3,0-0.6,0-1c0-0.5,0-1,0-1.6c0-0.7,0-1.4,0-2c0-0.2,0-0.5,0-0.7c0-0.6-0.1-1.2-0.1-1.8c-21.9,1.5-43.7,9.2-60.4,23.5
			l20.7-20.7c10.4-10.4,23.4-16.5,36.9-18.5c20-3,41.1,3.2,56.4,18.5L328.7,166.7z"/>
		<path fill="#3401CB" d="M267.8,299c-1.8,1.6-3.7,3.1-5.6,4.4c-16.9,12.1-38.4,15.3-57.7,9.7c-1.8-0.5-3.5-1.1-5.2-1.8h0l-6-6.1
			c-0.5-0.5-0.9-1.1-1.4-1.6c-0.3-0.3-0.5-0.6-0.8-1c0.8,0.6,1.6,1.2,2.4,1.7c17.9,12.3,42.7,10.5,58.7-5.4c1-1,1.9-2,2.8-3
			c0-0.1,0.1-0.1,0.1-0.2c3.2,2.8,7.5,3.7,11.4,2.6C266.9,298.7,267.4,298.8,267.8,299z"/>
		<linearGradient id="SVGID_4_" gradientUnits="userSpaceOnUse" x1="209.2265" y1="240.0662" x2="178.9206" y2="180.432">
			<stop  offset="0" style="stop-color:#E03C7D"/>
			<stop  offset="0.338" style="stop-color:#ED4371"/>
			<stop  offset="0.6397" style="stop-color:#E65391"/>
			<stop  offset="1" style="stop-color:#FDC122"/>
		</linearGradient>
		<path fill="url(#SVGID_4_)" d="M205.7,229.6c-0.2,0.2-0.4,0.4-0.6,0.6c-0.4,0.5-0.8,1-1.1,1.5c-0.1,0.1-0.1,0.2-0.2,0.3
			c-0.1,0.2-0.3,0.4-0.4,0.6c-0.1,0.2-0.2,0.3-0.2,0.5c-0.1,0.3-0.3,0.6-0.4,0.9c0,0.1-0.1,0.2-0.1,0.3c-0.1,0.2-0.1,0.4-0.2,0.5
			c-0.1,0.2-0.1,0.4-0.1,0.5c0,0.2-0.1,0.4-0.1,0.6c0,0.3-0.1,0.5-0.1,0.7v0.1c0,0.3-0.1,0.6-0.1,0.8c0,0.8,0,1.6,0.2,2.5
			c0,0.1,0,0.2,0.1,0.4c0,0.2,0.1,0.4,0.2,0.6c0,0.1,0,0.2,0.1,0.3c0,0.1,0.1,0.2,0.1,0.3c0.1,0.2,0.1,0.4,0.2,0.6
			c0.1,0.2,0.2,0.4,0.3,0.6l-2-2c-1.2-1.2-2.3-2.4-3.4-3.7c-0.4-0.4-0.7-0.8-1-1.2c-0.3-0.4-0.6-0.8-0.9-1.1
			c-0.3-0.4-0.5-0.7-0.8-1.1c-0.8-1.1-1.6-2.3-2.4-3.4c-0.2-0.3-0.5-0.7-0.7-1c-2.3-3.6-4.2-7.5-5.8-11.4c-0.1-0.3-0.2-0.6-0.3-0.9
			c-0.2-0.4-0.3-0.9-0.5-1.3c-0.3-0.9-0.6-1.8-0.9-2.8c-0.1-0.3-0.2-0.6-0.3-0.9c-0.3-1-0.5-1.9-0.8-2.9c-0.1-0.4-0.2-0.7-0.3-1.1
			c-0.1-0.5-0.2-1-0.3-1.4c-0.2-0.9-0.3-1.7-0.5-2.6c-0.1-0.4-0.1-0.8-0.2-1.2c0-0.2-0.1-0.4-0.1-0.7c0-0.3-0.1-0.7-0.1-1
			c-0.2-2-0.4-4.1-0.4-6.2c0-0.5,0-1,0-1.4c0-3.4,0.3-6.8,0.8-10.2c0.2-0.3,0.4-0.6,0.6-0.9c0.4-0.5,0.7-1.1,1.1-1.6c0,0,0,0,0-0.1
			c0.3-0.5,0.7-0.9,1-1.4c0.5-0.7,1-1.3,1.5-2c0.4-0.5,0.8-1,1.3-1.5l0.5-0.5c-6.1,16.4-2.6,35.5,10.6,48.7
			C201.2,226.3,203.4,228.1,205.7,229.6z"/>
		<linearGradient id="SVGID_5_" gradientUnits="userSpaceOnUse" x1="240.6605" y1="199.7724" x2="205.3805" y2="158.7324">
			<stop  offset="5.852200e-02" style="stop-color:#E36A00"/>
			<stop  offset="0.338" style="stop-color:#FE9B15"/>
			<stop  offset="0.6508" style="stop-color:#FEA50F"/>
		</linearGradient>
		<path fill="url(#SVGID_5_)" d="M256.3,149.3c0,0.5,0,1,0,1.6c0,0.3,0,0.6,0,1c0,0.3,0,0.5,0,0.8c0,0.4,0,0.8-0.1,1.3
			c0,0.3,0,0.7-0.1,1.1v0c-0.1,0.8-0.1,1.6-0.2,2.3c0,0.5-0.1,0.9-0.2,1.3c0,0.1,0,0.1,0,0.2c-0.1,0.5-0.1,0.9-0.2,1.3
			c0,0.2-0.1,0.5-0.1,0.7c-0.1,0.4-0.1,0.8-0.2,1.3c0,0.2-0.1,0.4-0.1,0.7c0,0,0,0.1,0,0.1c-0.1,0.8-0.3,1.5-0.5,2.3
			c-0.2,0.8-0.4,1.6-0.6,2.4c-0.2,0.8-0.4,1.5-0.6,2.3c-0.1,0.2-0.1,0.4-0.2,0.6c-0.2,0.7-0.4,1.3-0.6,1.9c-0.8,2.4-1.7,4.7-2.8,7
			c-0.2,0.3-0.3,0.7-0.5,1c-0.2,0.3-0.3,0.7-0.5,1c-0.1,0.1-0.1,0.3-0.2,0.4c-0.3,0.5-0.5,1-0.8,1.6c-0.3,0.5-0.6,1.1-0.9,1.6
			c-0.1,0.1-0.1,0.3-0.2,0.4c-0.2,0.3-0.4,0.7-0.6,1c-0.2,0.4-0.5,0.8-0.8,1.2c0,0.1-0.1,0.1-0.1,0.2c-0.3,0.4-0.5,0.8-0.8,1.2
			c-0.2,0.3-0.3,0.5-0.5,0.8c-0.2,0.3-0.4,0.6-0.6,0.9c-0.1,0.1-0.2,0.3-0.3,0.4c-0.3,0.4-0.7,0.9-1,1.3c-0.4,0.5-0.7,0.9-1.1,1.4
			c-0.2,0.2-0.3,0.4-0.4,0.5c-0.3,0.4-0.6,0.7-0.9,1.1c-0.4,0.5-0.9,1-1.3,1.5c-0.9,1-1.8,1.9-2.7,2.9l-29.9,29.9
			c-2.3-1.6-4.5-3.4-6.5-5.4c-13.2-13.2-16.7-32.3-10.6-48.7l7.2-7.2c13.1-11.2,29.3-18.4,46.2-21.7c4.7-0.9,9.5-1.5,14.2-1.9
			c0,0.6,0.1,1.2,0.1,1.8c0,0.2,0,0.4,0,0.7C256.3,147.9,256.3,148.6,256.3,149.3z"/>
		<linearGradient id="SVGID_6_" gradientUnits="userSpaceOnUse" x1="163.05" y1="285.144" x2="247.0762" y2="264.3545">
			<stop  offset="0" style="stop-color:#9C57E2"/>
			<stop  offset="0.148" style="stop-color:#9144F9"/>
			<stop  offset="0.3212" style="stop-color:#6C2AF6"/>
			<stop  offset="0.5391" style="stop-color:#6926F6"/>
			<stop  offset="0.8296" style="stop-color:#530AF6"/>
			<stop  offset="1" style="stop-color:#5310EE"/>
		</linearGradient>
		<path fill="url(#SVGID_6_)" d="M254.9,296.1c-0.9,1-1.8,2-2.8,3c-16,15.9-40.7,17.8-58.7,5.4c-0.8-0.5-1.6-1.1-2.4-1.7
			c0.3,0.3,0.5,0.6,0.8,1c0.4,0.5,0.9,1.1,1.4,1.6l-20.6-20.6c-7.5-7.5-12.8-16.3-15.9-25.8c-1.5-4.7-2.6-9.5-3-14.4
			c5-1.3,10.1-2,15.3-2.2c3.7-0.1,7.4,0,11,0.4c3.3,0.4,6.6,1,9.9,1.9c11.7,3.1,22.8,9.2,32,18.4L254.9,296.1z"/>
		<linearGradient id="SVGID_7_" gradientUnits="userSpaceOnUse" x1="228.9088" y1="317.6471" x2="264.9088" y2="311.1671">
			<stop  offset="0.234" style="stop-color:#FAE888"/>
			<stop  offset="1" style="stop-color:#FD906C"/>
		</linearGradient>
		<path fill="url(#SVGID_7_)" d="M281.5,285.5c-3.7,4.7-6.7,9.7-9,15c-1.5,3.5-2.8,7-3.8,10.6c-0.8,3-1.4,6-1.8,9.1
			c-0.3,2.3-0.5,4.6-0.6,6.9c-0.1,2.1,0,4.3,0.1,6.4c-0.2,0-0.3,0-0.5,0c-1.7,0.1-3.5,0.1-5.3,0.1c-0.4,0-0.9,0-1.3,0
			c-0.4,0-0.9,0-1.3,0c-0.9,0-1.7-0.1-2.6-0.1h-0.1c-0.8,0-1.7-0.1-2.5-0.2c0,0-0.1,0-0.1,0c-0.8-0.1-1.7-0.1-2.6-0.2
			c-0.9-0.1-1.7-0.2-2.6-0.3c-0.8-0.1-1.6-0.2-2.3-0.3c-0.3,0-0.5-0.1-0.8-0.1c-0.7-0.1-1.3-0.2-2-0.3c0,0-0.1,0-0.1,0
			c-0.7-0.1-1.4-0.3-2.1-0.4c-0.2,0-0.4-0.1-0.6-0.1c-0.8-0.2-1.6-0.3-2.3-0.5c-1.3-0.3-2.7-0.6-4-1c-0.3-0.1-0.7-0.2-1-0.3
			c-0.5-0.2-1.1-0.3-1.6-0.5c-0.6-0.2-1.3-0.4-1.9-0.6c-1.4-0.4-2.7-0.9-4-1.5c-0.5-0.2-1.1-0.4-1.6-0.6c-0.2-0.1-0.3-0.1-0.5-0.2
			c-0.6-0.3-1.3-0.5-1.9-0.8c-1.2-0.5-2.4-1.1-3.6-1.7c-0.8-0.4-1.7-0.9-2.5-1.3c-1-0.6-2-1.2-3.1-1.8c-0.1-0.1-0.2-0.1-0.4-0.2
			c-0.6-0.3-1.1-0.7-1.6-1c-0.6-0.4-1.2-0.8-1.8-1.2c-1.2-0.8-2.3-1.6-3.4-2.5c-0.6-0.4-1.1-0.9-1.7-1.3c-0.5-0.5-1.1-0.9-1.6-1.4
			l-1.8-1.8c1.7,0.7,3.5,1.3,5.2,1.8c19.3,5.6,40.8,2.4,57.7-9.7c1.9-1.4,3.8-2.8,5.6-4.4c1-0.9,1.9-1.8,2.9-2.7L281.5,285.5z"/>
		<linearGradient id="SVGID_8_" gradientUnits="userSpaceOnUse" x1="201.1723" y1="328.5676" x2="328.8423" y2="328.5676">
			<stop  offset="0.234" style="stop-color:#FAE888"/>
			<stop  offset="1" style="stop-color:#FBB682"/>
		</linearGradient>
		<path fill="url(#SVGID_8_)" d="M328.8,309.4l-19.1,19.1c-11.4,11.4-26.1,17.8-41.1,19c-7,0.6-14.2,0-21.1-1.6l0,0
			c-11.4-2.7-22.3-8.6-31.1-17.4l-15.2-15.2c0.5,0.5,1.1,0.9,1.6,1.4c0.6,0.4,1.1,0.9,1.7,1.3c1.1,0.9,2.3,1.7,3.4,2.5
			c0.6,0.4,1.2,0.8,1.8,1.2c0.5,0.3,1.1,0.7,1.6,1c0.1,0.1,0.2,0.1,0.4,0.2c1,0.6,2,1.2,3.1,1.8c0.8,0.4,1.7,0.9,2.5,1.3
			c1.2,0.6,2.4,1.2,3.6,1.7c0.6,0.3,1.3,0.5,1.9,0.8c0.2,0.1,0.3,0.1,0.5,0.2c0.5,0.2,1.1,0.4,1.6,0.6c1.3,0.5,2.7,1,4,1.5
			c0.6,0.2,1.3,0.4,1.9,0.6c0.5,0.2,1.1,0.3,1.6,0.5c0.3,0.1,0.7,0.2,1,0.3c1.3,0.4,2.6,0.7,4,1c0.8,0.2,1.5,0.3,2.3,0.5
			c0.2,0,0.4,0.1,0.6,0.1c0.7,0.1,1.4,0.3,2.1,0.4c0,0,0.1,0,0.1,0c0.7,0.1,1.3,0.2,2,0.3c0.3,0,0.5,0.1,0.8,0.1
			c0.8,0.1,1.5,0.2,2.3,0.3c0.9,0.1,1.7,0.2,2.6,0.3c0.8,0.1,1.7,0.2,2.6,0.2c0,0,0.1,0,0.1,0c0.9,0.1,1.7,0.1,2.5,0.2h0.1
			c0.9,0,1.7,0.1,2.6,0.1c0.9,0,1.8,0,2.6,0c1.8,0,3.5,0,5.3-0.1c0.2,0,0.3,0,0.5,0c0.8,0,1.6-0.1,2.4-0.1c0.8,0,1.6-0.1,2.4-0.2
			c0.9-0.1,1.8-0.2,2.6-0.3c0.8-0.1,1.7-0.2,2.5-0.3c0.9-0.1,1.8-0.3,2.7-0.4c1.8-0.3,3.5-0.6,5.2-1c0.6-0.1,1.2-0.2,1.7-0.4
			c0.5-0.1,1-0.2,1.5-0.4c0.6-0.1,1.3-0.3,1.9-0.5c1.1-0.3,2.3-0.6,3.4-1c0.3-0.1,0.6-0.2,0.9-0.3c0.5-0.1,0.9-0.3,1.4-0.4
			c0.3-0.1,0.7-0.2,1-0.3c1.1-0.4,2.2-0.8,3.3-1.2c0.5-0.2,1.1-0.4,1.6-0.6c0.4-0.1,0.7-0.3,1.1-0.4c0.4-0.2,0.8-0.3,1.1-0.5
			c2.8-1.2,5.6-2.5,8.3-3.9c0.5-0.3,0.9-0.5,1.4-0.8c1.4-0.8,2.9-1.6,4.2-2.5c0.4-0.3,0.9-0.6,1.3-0.8c0.7-0.4,1.4-0.9,2-1.4
			c0.5-0.3,0.9-0.6,1.3-0.9c0.7-0.5,1.4-1,2.1-1.6c0.6-0.4,1.1-0.9,1.7-1.3c0.5-0.4,0.9-0.8,1.4-1.2
			C327.6,310.4,328.3,309.9,328.8,309.4z"/>
		<path fill="#F83C5E" d="M342,279.2c0,0.3,0,0.6,0,0.9v0.1c0,0.5,0,1,0,1.5c0,0.4,0,0.9,0,1.3c0,0.6-0.1,1.2-0.1,1.8
			c0,0.4,0,0.8-0.1,1.1c0,0.4-0.1,0.7-0.1,1.1c0,0.6-0.1,1.1-0.2,1.7c-0.1,0.5-0.1,0.9-0.2,1.3c0,0.3-0.1,0.6-0.1,0.9
			c-0.3,1.9-0.7,3.9-1.2,5.8c-1.7,2.5-3.5,4.8-5.4,7l-3.2,3.2c5.8-9,8.2-19.6,7.1-29.9c-0.7-6.7-2.9-13.3-6.6-19.3
			c-1.8-3-4-5.8-6.6-8.4c-1.3-1.3-2.6-2.5-4-3.6c0.5-0.6,1-1.3,1.3-2c0.1-0.2,0.2-0.4,0.3-0.6c0.1-0.2,0.2-0.4,0.2-0.5
			c0,0,0-0.1,0-0.1c0.1-0.2,0.2-0.5,0.3-0.8c0.1-0.3,0.2-0.6,0.2-0.9c0.1-0.5,0.2-1.1,0.3-1.7c0-0.5,0.1-1,0-1.5c0-0.2,0-0.3,0-0.4
			c0-0.3,0-0.6-0.1-0.8c-0.1-0.5-0.2-0.9-0.3-1.4c0-0.1,0-0.2-0.1-0.3c-0.2-0.8-0.5-1.6-0.9-2.3c-0.1-0.2-0.2-0.4-0.4-0.6
			c0,0,0,0,0-0.1c-0.1-0.2-0.2-0.4-0.4-0.6c0,0-0.1-0.1-0.1-0.2c-0.3-0.5-0.7-0.9-1.2-1.4l-18-18c2.4,2.4,5,4.6,7.7,6.6l11.1,11.1
			c2.7,2.7,5.1,5.5,7.2,8.5c0.4,0.5,0.8,1.1,1.1,1.6c0,0,0,0.1,0.1,0.1c0.3,0.4,0.6,0.9,0.9,1.3c0.5,0.7,0.9,1.4,1.3,2.2
			c0.3,0.5,0.5,0.9,0.8,1.4c0.4,0.7,0.7,1.3,1.1,2c0.3,0.5,0.5,1,0.8,1.5c0.3,0.6,0.6,1.2,0.9,1.8c0.3,0.6,0.5,1.2,0.8,1.8
			c0.2,0.5,0.4,1,0.6,1.5c0.2,0.4,0.3,0.8,0.5,1.2c0.2,0.4,0.3,0.9,0.5,1.3c0.4,1.1,0.8,2.3,1.1,3.4c0.2,0.6,0.3,1.1,0.5,1.7
			c0.3,1,0.5,2,0.7,2.9c0.1,0.4,0.2,0.8,0.3,1.2c0.1,0.6,0.3,1.2,0.4,1.8c0.2,0.8,0.3,1.7,0.4,2.5c0.1,0.6,0.2,1.2,0.3,1.8
			c0.1,0.8,0.2,1.6,0.2,2.4c0,0.5,0.1,1.1,0.1,1.6c0,0.4,0,0.8,0.1,1.2c0,0.5,0,0.9,0,1.4c0,0.3,0,0.6,0,1
			C342,278.7,342,278.9,342,279.2z"/>
		<linearGradient id="SVGID_9_" gradientUnits="userSpaceOnUse" x1="329.5187" y1="273.1838" x2="288.4787" y2="313.1438">
			<stop  offset="0" style="stop-color:#FD3A3A"/>
			<stop  offset="0.4553" style="stop-color:#FD3D46"/>
			<stop  offset="1" style="stop-color:#FE3246"/>
		</linearGradient>
		<path fill="url(#SVGID_9_)" d="M331.3,306.9l-2.4,2.4c-0.6,0.5-1.2,1.1-1.8,1.6c-0.5,0.4-0.9,0.8-1.4,1.2
			c-0.5,0.4-1.1,0.9-1.7,1.3c-0.7,0.5-1.4,1.1-2.1,1.6c-0.4,0.3-0.9,0.6-1.3,0.9c-0.7,0.5-1.3,0.9-2,1.4c-0.4,0.3-0.9,0.6-1.3,0.8
			c-1.4,0.9-2.8,1.7-4.2,2.5c-0.5,0.3-0.9,0.5-1.4,0.7c-2.7,1.4-5.5,2.8-8.3,3.9c-0.4,0.2-0.7,0.3-1.1,0.5c-0.4,0.1-0.7,0.3-1.1,0.4
			c-0.5,0.2-1.1,0.4-1.6,0.6c-0.9,0.3-1.9,0.7-2.8,1c0,0,0,0,0,0c-0.1,0-0.3,0.1-0.4,0.1c-0.3,0.1-0.7,0.2-1,0.3
			c-0.5,0.2-0.9,0.3-1.4,0.4c-0.3,0.1-0.6,0.2-0.9,0.3c-1.1,0.3-2.3,0.7-3.4,1c-0.6,0.2-1.2,0.3-1.9,0.5c-0.5,0.1-1,0.2-1.6,0.4
			c-0.6,0.1-1.2,0.3-1.7,0.4c-1.7,0.4-3.5,0.7-5.2,1c-0.9,0.1-1.8,0.3-2.7,0.4c-0.8,0.1-1.7,0.2-2.5,0.3c-0.9,0.1-1.7,0.2-2.6,0.3
			c-0.8,0.1-1.6,0.1-2.4,0.2c-0.8,0.1-1.6,0.1-2.4,0.1c-0.3-4.4-0.1-8.9,0.5-13.3c0.4-3,1-6.1,1.8-9.1c1-3.6,2.2-7.2,3.8-10.6
			c2.3-5.3,5.3-10.3,9-15l39-39c0.2-0.2,0.5-0.5,0.7-0.8c1.4,1.1,2.7,2.3,4,3.6c2.6,2.6,4.8,5.4,6.6,8.4c3.7,6,5.9,12.6,6.6,19.3
			C339.5,287.3,337.1,297.9,331.3,306.9z"/>
		<path fill="#3200D2" d="M332.2,170.2c-0.9-0.7-1.9-1.3-2.8-1.9c-4.5-2.8-9.3-4.8-14.3-5.9c-5-1.1-10.1-1.4-15.1-0.8
			c-3.8,0.4-7.5,1.3-11.1,2.6c-4,1.5-7.9,3.6-11.4,6.2c-1.8,1.3-3.5,2.8-5.1,4.4c-1.2,1.2-2.2,2.3-3.2,3.6c-0.1,0.1-0.2,0.2-0.3,0.4
			c-1.3-0.7-2.8-1.2-4.3-1.4c-2.8-0.3-5.7,0.3-8.1,1.9l1.9-1.9c1.7-1.7,3.4-3.2,5.2-4.7c15.7-12.7,36-17.3,54.9-13.6
			c3.7,2.3,7.1,4.8,10.3,7.6L332.2,170.2z"/>
		<linearGradient id="SVGID_10_" gradientUnits="userSpaceOnUse" x1="343.3283" y1="244.3254" x2="299.6274" y2="158.3332">
			<stop  offset="0" style="stop-color:#9C57E2"/>
			<stop  offset="0.148" style="stop-color:#9144F9"/>
			<stop  offset="0.3212" style="stop-color:#6C2AF6"/>
			<stop  offset="0.5391" style="stop-color:#6926F6"/>
			<stop  offset="0.8296" style="stop-color:#530AF6"/>
			<stop  offset="1" style="stop-color:#5310EE"/>
		</linearGradient>
		<path fill="url(#SVGID_10_)" d="M372.2,229.7c-5.3,1.5-10.7,2.4-16.1,2.6c-0.8,0-1.5,0.1-2.3,0.1c-0.7,0-1.5,0-2.2,0
			c-0.1,0-0.3,0-0.4,0c-0.5,0-1.1,0-1.6,0h-0.1c-0.3,0-0.6,0-0.9-0.1c-0.4,0-0.8,0-1.1-0.1c-0.3,0-0.6,0-0.8-0.1c-0.1,0-0.2,0-0.3,0
			c-0.6,0-1.2-0.1-1.8-0.2c-0.2,0-0.4,0-0.5-0.1c-0.6-0.1-1.2-0.2-1.8-0.2c-0.6-0.1-1.1-0.2-1.7-0.3c-0.1,0-0.2,0-0.2,0
			c-0.2,0-0.4-0.1-0.7-0.1c0,0-0.1,0-0.1,0c-0.6-0.1-1.2-0.2-1.9-0.4c-0.6-0.1-1.2-0.3-1.8-0.4c0,0-0.1,0-0.1,0
			c-0.4-0.1-0.8-0.2-1.3-0.3c-0.4-0.1-0.9-0.2-1.3-0.4c-1.3-0.4-2.6-0.8-3.9-1.2c-0.5-0.1-0.9-0.3-1.3-0.5c-0.4-0.1-0.8-0.3-1.1-0.4
			c0,0-0.1,0-0.1,0c-0.3-0.1-0.5-0.2-0.8-0.3c0,0,0,0,0,0c-0.6-0.2-1.1-0.5-1.7-0.7c-0.1,0-0.1,0-0.2-0.1c0,0-0.1,0-0.2-0.1
			c-0.6-0.3-1.2-0.5-1.8-0.8c-0.3-0.1-0.6-0.3-0.8-0.4c-0.1,0-0.2-0.1-0.3-0.1c-0.1-0.1-0.2-0.1-0.3-0.2c-0.4-0.2-0.7-0.4-1.1-0.6
			c-0.1-0.1-0.3-0.2-0.4-0.2c-0.5-0.3-1-0.5-1.5-0.8c-0.1-0.1-0.3-0.1-0.4-0.2c-0.6-0.4-1.3-0.8-1.9-1.1c-0.3-0.2-0.6-0.4-0.9-0.6
			c-0.2-0.1-0.4-0.3-0.6-0.4c-0.4-0.2-0.7-0.5-1.1-0.7c-0.9-0.6-1.7-1.2-2.6-1.8c-2.7-2-5.2-4.2-7.7-6.6l-12.5-12.5l-18.5-18.5l0,0
			l-2.3-2.3c1-1.3,2.1-2.4,3.2-3.6c1.6-1.6,3.3-3.1,5.1-4.4c3.5-2.7,7.4-4.7,11.4-6.2c3.6-1.3,7.3-2.2,11.1-2.6
			c5-0.5,10.2-0.3,15.1,0.8c5,1.1,9.8,3.1,14.3,5.9c1,0.6,1.9,1.2,2.8,1.9l21.3,21.3C364.2,202.1,370.4,215.7,372.2,229.7z"/>
	</g>
</g>
</svg>
