<?xml version="1.0"?><svg width="213.33333333333331" height="213.33333333333331" xmlns="http://www.w3.org/2000/svg" xmlns:xlink="http://www.w3.org/1999/xlink">
 <metadata id="metadata39"/>
 <defs>
  <linearGradient id="linearGradient1074">
   <stop offset="0" id="stop1075" stop-opacity="0" stop-color="#ffffff"/>
   <stop offset="1" id="stop1076" stop-opacity="0.4" stop-color="#ffffff"/>
  </linearGradient>
  <linearGradient xlink:href="#linearGradient1074" id="linearGradient2423" x1="0.471015" y1="0.72973" x2="0.485508" y2="-0.067568"/>
  <linearGradient xlink:href="#linearGradient1074" id="linearGradient2426" x1="0.272727" y1="0.695312" x2="0.151515" y2="0.296875"/>
  <linearGradient xlink:href="#linearGradient1074" id="linearGradient2429" x1="0.605072" y1="0.352459" x2="0.293478" y2="1.016394"/>
  <linearGradient xlink:href="#linearGradient1074" id="linearGradient2432" x1="0.462808" y1="0.705832" x2="0.486421" y2="0.146034"/>
 </defs>
 <metadata id="metadata41">Clipart by Nicu Buculei - piggybankNicu Buculeiimage/svg+xml</metadata>
 <g>
  <title>Layer 1</title>
  <path d="m171.771347,102.248062a73.880829,73.514076 0 1 1 -147.761646,0a73.880829,73.514076 0 1 1 147.761646,0z" id="path1195" stroke-linejoin="round" stroke-width="2.246606" stroke="#000000" fill-rule="evenodd" fill="#ffffff"/>
  <path id="path1196" d="m63.190861,63.55159l28.238293,-16.799389l26.036407,16.416378l-12.060684,30.727028l-32.210983,-1.052856l-10.003033,-29.291161z" stroke-linejoin="round" stroke-width="2.5" fill-rule="evenodd"/>
  <path id="path1197" d="m121.917419,118.545837l27.185425,-0.383011l2.87175,24.265625l-28.273621,20.633545l-18.869797,-16.660873l17.086243,-27.855286z" stroke-linejoin="round" stroke-width="2.5" fill-rule="evenodd"/>
  <path id="path1198" d="m35.143261,116.057114l23.260818,1.77079l16.464458,28.860085l-12.491768,14.693665l-22.973969,-18.808975l-4.259541,-26.515564z" stroke-linejoin="round" stroke-width="2.5" fill-rule="evenodd"/>
  <path id="path1199" d="m28.25075,90.402092l14.214491,-25.414635l0.862171,-11.200127c-2.538292,0 -18.741451,26.108566 -18.618271,37.523392c2.153809,4.307617 3.541609,-0.90863 3.541609,-0.90863z" stroke-linejoin="round" stroke-width="2.5" fill-rule="evenodd"/>
  <path id="path1200" d="m142.810059,46.100819l0,17.746971l16.904388,28.083378l10.833527,-1.004791c0.50766,-12.691444 -13.199097,-35.536045 -17.260361,-37.566677c-3.553604,-2.009571 -10.477554,-7.258881 -10.477554,-7.258881z" stroke-linejoin="round" stroke-width="2.5" fill-rule="evenodd"/>
  <path id="path1201" d="m41.095261,64.528183l23.905258,-0.50766" stroke-linejoin="round" stroke-width="2.5" stroke="#000000" fill-rule="evenodd" fill-opacity="0.75" fill="none"/>
  <path id="path1202" d="m83.079178,30.00745l10.650284,3.370338l16.407249,-3.370338c0,0 -22.996284,-3.04595 -27.057533,0z" stroke-linejoin="round" stroke-width="2.5" fill-rule="evenodd"/>
  <path id="path1203" d="m93.891663,33.053391l-2.030632,14.72208" stroke-linejoin="round" stroke-width="2.5" stroke="#000000" fill-rule="evenodd" fill-opacity="0.75" fill="none"/>
  <path id="path1204" d="m26.681391,91.588127l9.890287,26.289452" stroke-linejoin="round" stroke-width="2.5" stroke="#000000" fill-rule="evenodd" fill-opacity="0.75" fill="none"/>
  <path id="path1205" d="m58.31028,119.600014l16.335732,-28.56488" stroke-linejoin="round" stroke-width="2.5" stroke="#000000" fill-rule="evenodd" fill-opacity="0.75" fill="none"/>
  <path id="path1206" d="m115.720947,64.020523l28.519516,-0.707111" stroke-linejoin="round" stroke-width="2.5" stroke="#000000" fill-rule="evenodd" fill-opacity="0.75" fill="none"/>
  <path id="path1207" d="m104.15358,91.851013l18.565811,28.764305" stroke-linejoin="round" stroke-width="2.5" stroke="#000000" fill-rule="evenodd" fill-opacity="0.75" fill="none"/>
  <path id="path1208" d="m160.594284,91.035133l-12.782135,29.779625" stroke-linejoin="round" stroke-width="2.5" stroke="#000000" fill-rule="evenodd" fill-opacity="0.75" fill="none"/>
  <path id="path1209" d="m72.832901,146.261063l34.149101,-0.199448" stroke-linejoin="round" stroke-width="2.5" stroke="#000000" fill-rule="evenodd" fill-opacity="0.75" fill="none"/>
  <path id="path1210" d="m61.86388,158.861816l16.997501,14.350464" stroke-linejoin="round" stroke-width="2.5" stroke="#000000" fill-rule="evenodd" fill-opacity="0.75" fill="none"/>
  <path id="path1211" d="m124.815742,160.119629l-14.679031,14.570267" stroke-linejoin="round" stroke-width="2.5" stroke="#000000" fill-rule="evenodd" fill-opacity="0.75" fill="none"/>
  <path id="path1212" d="m149.996887,141.846252l7.85965,1.876526" stroke-linejoin="round" stroke-width="2.5" stroke="#000000" fill-rule="evenodd" fill-opacity="0.75" fill="none"/>
  <path id="path1213" d="m39.064621,143.215118l0,0" stroke-linejoin="round" stroke-width="2.5" stroke="#000000" fill-rule="evenodd" fill-opacity="0.75" fill="none"/>
  <path id="path1214" d="m37.288979,143.107697l3.40517,-1.0979" stroke-linejoin="round" stroke-width="2.5" stroke="#000000" fill-rule="evenodd" fill-opacity="0.75" fill="none"/>
  <path id="path1215" d="m144.187271,48.062309l-13.787964,-11.46209" stroke-width="1pt" stroke="#000000" fill-rule="evenodd" fill-opacity="0.75" fill="none"/>
  <path id="path1217" d="m91.547523,47.652882l-16.566376,9.712948c-13.041058,18.395844 33.365799,21.772842 31.045746,0c-2.009583,-2.344509 -14.47937,-9.712948 -14.47937,-9.712948z" stroke-width="1pt" fill-rule="evenodd" fill="url(#linearGradient2432)"/>
  <path id="path1219" d="m74.131203,91.863533c9.712936,0.669853 21.10054,1.004784 23.110107,0.669853c10.047882,-4.689003 -25.11969,-21.435463 -23.110107,-0.669853z" stroke-width="1pt" fill-rule="evenodd" fill="url(#linearGradient2429)"/>
  <path id="path1221" d="m39.96841,57.365829c-5.719872,0.798611 -16.488941,28.159309 -15.07181,30.813484c2.009579,2.679436 19.090971,-21.770401 15.07181,-30.813484z" stroke-width="1pt" fill-rule="evenodd" fill="url(#linearGradient2426)"/>
  <path id="path1223" d="m86.188637,28.896839c0,0 18.421112,-2.009569 19.090973,0c-8.0383,3.684219 -11.387589,7.03352 -19.090973,0z" stroke-width="1pt" fill-rule="evenodd" fill="url(#linearGradient2423)"/>
 </g>
</svg>