<?xml version="1.0" encoding="utf-8"?>
<!-- Generator: Adobe Illustrator 23.1.0, SVG Export Plug-In . SVG Version: 6.00 Build 0)  -->
<svg version="1.1" baseProfile="basic" id="Layer_1"
	 xmlns="http://www.w3.org/2000/svg" xmlns:xlink="http://www.w3.org/1999/xlink" x="0px" y="0px" viewBox="0 0 512 512"
	 xml:space="preserve" >
<path  fill="gray" d="M485.7,512c-14.3,0-26-6.5-26.2-20.9l-0.2-269.7L258,72.5L52.5,219.9v270.8c0,14.5-11.8,21.3-26.3,21.3S0,505.2,0,490.7
	V206.3c0-8.5,4.2-16.6,11.1-21.5L243.5,18.5c9.4-6.6,21.9-6.4,31,0.6l226.8,168.3c6.4,4.9,10.2,12.4,10.4,20.5l0.4,282.4
	c0.2,14.5-11.4,21.5-25.9,21.7C486,512,485.9,512,485.7,512z"/>
</svg>
