<?xml version="1.0" standalone="no"?>
<!DOCTYPE svg PUBLIC "-//W3C//DTD SVG 20010904//EN"
 "http://www.w3.org/TR/2001/REC-SVG-20010904/DTD/svg10.dtd">
<svg version="1.0" xmlns="http://www.w3.org/2000/svg"
 width="640.000000pt" height="1280.000000pt" viewBox="0 0 640.000000 1280.000000"
 preserveAspectRatio="xMidYMid meet">
<metadata>
Created by potrace 1.15, written by Peter Selinger 2001-2017
</metadata>
<g transform="translate(0.000000,1280.000000) scale(0.100000,-0.100000)"
fill="#000000" stroke="none">
<path d="M3675 12793 c-702 -60 -1325 -487 -1631 -1119 -131 -270 -194 -555
-194 -874 1 -455 143 -863 427 -1228 224 -287 566 -531 908 -646 l100 -34 0
-103 0 -104 -45 -7 c-25 -3 -124 -18 -220 -33 -718 -109 -1261 -288 -1615
-533 -430 -297 -691 -690 -963 -1452 -52 -146 -56 -161 -56 -250 -1 -88 2
-101 33 -168 44 -93 132 -180 218 -212 80 -31 193 -37 269 -15 113 32 225 128
260 223 135 367 245 626 321 757 234 405 550 598 1222 749 166 37 548 103 555
95 7 -6 -20 -379 -39 -546 -57 -499 -177 -952 -398 -1498 -145 -357 -133 -335
-222 -412 -115 -98 -387 -372 -483 -486 -429 -513 -622 -1037 -684 -1857 -28
-376 -11 -1300 37 -2005 8 -116 17 -253 21 -305 17 -268 131 -417 353 -461
172 -33 359 64 436 227 49 103 50 128 27 499 -74 1167 -80 1681 -26 2185 51
491 194 854 456 1165 124 147 165 182 218 188 25 2 95 12 155 20 421 60 658
43 769 -54 181 -159 264 -717 266 -1783 l1 -349 -68 -37 c-311 -168 -517 -413
-618 -731 -181 -573 88 -1199 633 -1473 205 -103 476 -146 708 -112 282 42
502 151 700 350 227 227 342 485 361 802 25 448 -192 864 -581 1112 -46 29
-131 72 -189 95 l-105 43 -6 359 c-10 581 -32 937 -76 1245 -97 680 -314 1062
-715 1263 -141 70 -294 110 -495 129 l-126 12 59 150 c92 236 231 663 281 864
51 203 95 446 125 682 23 179 51 513 51 605 0 35 3 66 8 68 4 3 71 -21 150
-53 399 -162 687 -357 811 -549 47 -73 93 -209 112 -326 6 -44 12 -152 11
-240 -1 -248 -34 -490 -137 -1001 -30 -149 -55 -294 -55 -322 0 -60 28 -155
64 -216 77 -132 266 -216 419 -186 129 25 246 114 299 226 46 98 160 655 209
1014 26 199 37 583 20 742 -27 245 -78 433 -171 623 -170 345 -505 640 -1005
885 -171 84 -419 185 -603 245 l-113 38 3 80 3 80 120 24 c605 121 1126 526
1395 1086 322 667 248 1455 -190 2046 -294 397 -721 671 -1194 766 -196 39
-400 53 -571 38z m342 -838 c588 -95 1011 -615 980 -1205 -9 -173 -47 -318
-121 -464 -63 -122 -125 -206 -226 -306 -220 -219 -498 -332 -810 -331 -211 1
-403 49 -568 144 -119 68 -184 120 -283 226 -429 457 -415 1163 31 1611 259
260 637 383 997 325z"/>
</g>
</svg>
