<?xml version="1.0" standalone="no"?>
<!DOCTYPE svg PUBLIC "-//W3C//DTD SVG 20010904//EN"
 "http://www.w3.org/TR/2001/REC-SVG-20010904/DTD/svg10.dtd">
<svg version="1.0" xmlns="http://www.w3.org/2000/svg"
 width="1144.000000pt" height="1280.000000pt" viewBox="0 0 1144.000000 1280.000000"
 preserveAspectRatio="xMidYMid meet">
<metadata>
Created by potrace 1.15, written by Peter Selinger 2001-2017
</metadata>
<g transform="translate(0.000000,1280.000000) scale(0.100000,-0.100000)"
fill="#000000" stroke="none">
<path d="M3774 12785 c-360 -78 -576 -498 -668 -1300 -53 -453 -67 -802 -72
-1765 l-5 -855 -25 -130 c-14 -71 -28 -140 -31 -152 l-5 -23 -554 0 c-484 0
-555 -2 -560 -15 -5 -13 -48 -15 -295 -15 -223 0 -291 -3 -294 -12 -3 -7 -34
-602 -70 -1323 -208 -4192 -247 -4977 -270 -5425 -42 -815 -49 -986 -42 -1003
6 -16 237 -17 3261 -17 2159 0 3257 3 3261 10 3 6 52 10 111 10 l106 0 109 85
c59 47 121 90 136 95 15 5 75 16 133 25 58 9 112 18 121 21 14 4 17 196 25
2042 10 2344 9 3690 -6 4282 -12 477 -38 1184 -45 1218 l-5 22 -940 0 -940 0
0 91 c0 62 16 184 50 387 168 1009 244 1677 256 2257 13 583 -46 940 -198
1192 -75 125 -205 233 -333 277 -307 104 -747 -47 -1142 -390 -33 -30 -65 -54
-70 -54 -5 0 -29 21 -53 46 -69 72 -216 192 -305 250 -239 155 -450 211 -641
169z m256 -282 c124 -34 286 -137 461 -294 l90 -81 -51 -56 c-474 -533 -850
-1191 -1162 -2032 l-68 -185 5 280 c23 1171 100 1781 265 2121 115 236 245
306 460 247z m1892 -20 c149 -68 251 -290 294 -643 23 -181 22 -639 0 -930
-25 -324 -71 -737 -122 -1085 -25 -177 -22 -178 -74 30 -204 820 -542 1566
-962 2124 -44 58 -82 111 -85 117 -11 28 276 238 426 313 74 37 166 71 246 90
69 17 223 8 277 -16z m-1070 -685 c171 -232 303 -454 459 -773 306 -627 497
-1285 589 -2025 24 -198 25 -239 4 -352 l-16 -88 -1294 0 -1294 0 0 102 c0 81
7 133 36 257 181 785 451 1499 796 2106 99 175 299 475 411 618 93 119 214
257 226 257 4 0 41 -46 83 -102z"/>
</g>
</svg>
