<?xml version="1.0" standalone="no"?>
<!DOCTYPE svg PUBLIC "-//W3C//DTD SVG 20010904//EN"
 "http://www.w3.org/TR/2001/REC-SVG-20010904/DTD/svg10.dtd">
<svg version="1.0" xmlns="http://www.w3.org/2000/svg"
 width="686.000000pt" height="1280.000000pt" viewBox="0 0 686.000000 1280.000000"
 preserveAspectRatio="xMidYMid meet">
<metadata>
Created by potrace 1.15, written by Peter Selinger 2001-2017
</metadata>
<g transform="translate(0.000000,1280.000000) scale(0.100000,-0.100000)"
fill="#000000" stroke="none">
<path d="M1990 12785 c-228 -37 -429 -131 -545 -256 -139 -149 -189 -260 -284
-629 -42 -163 -145 -650 -156 -735 -14 -116 -37 -140 -107 -111 -50 21 -59 7
-69 -110 -12 -144 -40 -170 -130 -123 -57 29 -81 23 -97 -26 -21 -62 -9 -216
23 -307 15 -40 26 -80 26 -88 0 -33 -63 -266 -76 -280 -8 -9 -26 -42 -41 -75
-24 -51 -28 -77 -34 -199 -5 -87 -18 -189 -34 -264 -97 -462 -136 -826 -136
-1283 0 -261 -2 -291 -20 -345 -80 -230 -146 -700 -195 -1374 -3 -41 -10 -129
-15 -195 -5 -66 -14 -189 -21 -273 -9 -135 -14 -158 -35 -189 -31 -46 -39 -89
-38 -203 1 -105 23 -197 54 -225 27 -25 35 -13 16 24 -9 16 -16 32 -16 36 0
12 24 3 52 -20 65 -55 79 -17 18 49 -35 38 -52 76 -34 76 3 0 31 -18 61 -40
31 -22 62 -40 69 -40 32 0 20 25 -40 85 -60 59 -81 95 -56 95 5 0 32 -20 60
-45 92 -82 111 -48 25 45 -54 59 -65 88 -45 120 16 26 43 -2 61 -62 22 -74 27
-82 45 -67 17 14 18 73 4 116 -9 24 -5 60 15 169 35 194 111 561 194 944 116
537 143 693 148 865 3 137 8 168 53 360 99 421 174 779 216 1028 10 59 22 107
26 107 4 0 7 -30 7 -68 -2 -146 43 -294 184 -612 53 -118 103 -246 111 -283
34 -147 8 -317 -91 -602 -141 -406 -210 -615 -216 -651 -3 -21 -13 -82 -21
-134 -29 -180 -73 -1111 -83 -1760 -12 -803 43 -1314 169 -1563 61 -122 199
-224 397 -294 l100 -36 5 -41 c3 -22 8 -115 11 -205 6 -199 26 -382 65 -601
48 -269 54 -334 54 -570 1 -332 -5 -460 -21 -460 -14 0 -18 -54 -7 -109 5 -25
10 -30 28 -25 16 4 25 -1 35 -19 26 -48 105 -73 142 -44 8 7 23 24 33 39 15
23 21 26 38 17 11 -6 21 -9 22 -7 2 2 -1 44 -5 93 -21 231 -6 661 31 895 31
196 48 394 60 692 6 144 12 263 13 264 1 1 63 4 137 6 l135 4 1 -480 c0 -611
17 -945 80 -1571 12 -128 14 -216 9 -435 -4 -151 -7 -328 -6 -392 1 -75 -2
-118 -9 -118 -6 0 -10 -37 -10 -95 0 -93 1 -95 20 -85 23 12 40 6 40 -15 0
-26 57 -75 87 -75 38 0 89 33 108 70 13 25 20 29 40 24 l25 -6 0 97 c0 53 -4
94 -9 91 -4 -3 -11 27 -14 67 -4 40 -13 122 -22 182 -22 158 -19 219 25 704
99 1089 113 1314 114 1776 l1 360 85 42 c148 73 211 143 276 306 l31 79 11
-43 c6 -24 77 -359 158 -744 81 -385 148 -701 149 -703 2 -2 221 42 487 98
265 56 487 103 492 103 5 1 50 -64 100 -145 50 -81 95 -148 100 -148 4 0 192
115 416 255 l408 255 276 59 c152 32 280 61 283 65 4 3 -3 50 -15 104 -11 53
-18 100 -14 103 4 3 201 126 437 274 237 147 431 269 433 270 2 2 -1254 2018
-1344 2158 -16 24 -29 35 -37 31 -7 -4 -112 -70 -233 -146 -122 -76 -227 -138
-232 -138 -6 0 -15 6 -19 14 -13 24 -335 315 -383 347 -76 51 -153 68 -315 71
-129 3 -145 5 -145 20 0 24 -48 674 -61 828 -47 567 -105 947 -174 1151 -24
70 -25 81 -25 359 0 474 -35 798 -142 1310 -22 107 -44 241 -48 296 -6 83 -13
114 -38 168 -17 37 -43 117 -58 179 -30 128 -43 157 -80 186 l-27 21 51 0 c46
0 55 4 88 37 51 51 86 132 92 214 4 53 1 74 -12 93 -27 42 -51 50 -116 37 -96
-19 -124 5 -154 134 -33 139 -43 148 -114 108 -62 -34 -94 -27 -121 26 -32 62
-68 225 -86 386 -54 490 -85 656 -149 789 -123 254 -328 433 -571 497 -104 27
-298 34 -415 14z m1339 -3507 c66 -348 126 -632 200 -948 80 -338 90 -388 84
-444 -11 -120 22 -345 156 -1068 67 -364 114 -647 134 -816 l14 -114 -26 -10
c-201 -80 -287 -168 -347 -353 -25 -74 -27 -98 -33 -325 l-6 -245 -95 -21
c-83 -18 -95 -19 -99 -6 -1 8 2 85 8 171 36 517 41 1621 8 1807 -38 210 -92
386 -195 634 -151 364 -167 434 -167 745 0 276 -4 260 136 561 96 205 131 308
154 447 5 33 9 37 35 37 27 0 29 -4 39 -52z m1104 -3536 c72 -39 102 -86 199
-312 27 -63 52 -120 54 -126 3 -6 -43 -41 -102 -78 l-107 -67 -290 -61 c-238
-49 -291 -58 -298 -47 -5 8 -21 51 -35 97 -34 105 -31 222 5 293 26 50 100
131 113 123 11 -7 67 28 97 60 26 28 51 34 51 13 0 -7 -18 -36 -40 -66 -22
-29 -37 -57 -34 -62 10 -16 30 -9 59 21 16 17 33 30 38 30 9 0 5 -28 -9 -64
-4 -10 -1 -16 9 -16 13 0 20 12 42 75 4 11 10 56 14 100 l6 80 65 22 c72 24
93 22 163 -15z m-596 -87 c-120 -119 -163 -228 -155 -395 4 -68 13 -117 32
-173 15 -43 26 -80 24 -82 -1 -2 -20 -6 -40 -10 l-38 -7 0 178 c0 99 4 206 9
239 19 131 77 227 170 286 71 44 71 35 -2 -36z m1043 -233 c6 -5 -42 -41 -56
-42 -8 0 -42 70 -72 150 -3 8 24 -12 59 -44 35 -33 66 -62 69 -64z"/>
</g>
</svg>
