<?xml version="1.0" standalone="no"?>
<!DOCTYPE svg PUBLIC "-//W3C//DTD SVG 20010904//EN"
 "http://www.w3.org/TR/2001/REC-SVG-20010904/DTD/svg10.dtd">
<svg version="1.0" xmlns="http://www.w3.org/2000/svg"
 width="1280.000000pt" height="1260.000000pt" viewBox="0 0 1280.000000 1260.000000"
 preserveAspectRatio="xMidYMid meet">
<metadata>
Created by potrace 1.15, written by Peter Selinger 2001-2017
</metadata>
<g transform="translate(0.000000,1260.000000) scale(0.100000,-0.100000)"
fill="gold" stroke="none">
<path d="M6077 12585 c-181 -35 -308 -97 -419 -206 -91 -89 -135 -171 -146
-271 l-7 -63 -70 -8 c-840 -92 -1624 -309 -2149 -594 -145 -79 -352 -217 -370
-247 -17 -28 -5 -413 19 -610 9 -76 14 -140 12 -142 -2 -2 -19 20 -37 49 -52
81 -224 247 -323 312 -281 182 -617 266 -1007 251 -522 -19 -909 -163 -1186
-440 -278 -277 -408 -648 -390 -1106 12 -316 73 -563 201 -815 110 -218 253
-410 460 -618 268 -270 560 -480 1132 -815 147 -87 242 -161 356 -282 237
-249 407 -546 462 -811 22 -104 20 -125 -24 -199 -36 -61 -109 -140 -129 -140
-4 0 -28 13 -53 28 -51 33 -109 99 -167 192 -62 99 -72 110 -89 110 -18 0
-436 -223 -465 -248 -26 -22 -22 -43 19 -114 175 -303 393 -488 627 -533 98
-19 154 -19 252 0 204 39 425 205 520 389 21 41 40 74 41 72 1 -1 9 -69 18
-152 26 -249 61 -410 116 -532 87 -194 427 -590 749 -876 602 -534 1403 -987
1987 -1125 l52 -13 7 -66 c27 -253 -59 -679 -218 -1077 -65 -166 -209 -469
-236 -498 -23 -26 -115 -71 -182 -90 -113 -32 -241 -47 -575 -67 -358 -21
-423 -34 -635 -126 -276 -119 -390 -195 -441 -295 -23 -47 -24 -109 -2 -152
28 -54 143 -175 207 -216 320 -209 951 -355 1831 -423 247 -19 924 -16 1170 6
733 64 1341 199 1703 377 107 53 133 71 198 137 41 42 83 94 94 117 75 154
-69 295 -475 465 -196 82 -205 84 -770 120 -363 24 -546 77 -608 178 -69 111
-222 467 -290 677 -95 293 -136 501 -144 746 -4 106 -2 172 5 185 6 12 30 24
67 32 149 35 420 137 650 245 779 365 1540 974 1962 1567 107 152 143 232 181
410 32 150 69 527 72 735 1 26 6 19 41 -47 102 -194 296 -350 499 -403 99 -26
281 -17 378 18 172 62 326 193 461 392 79 116 114 183 107 208 -4 16 -61 52
-232 145 -135 74 -234 122 -247 120 -14 -2 -43 -35 -88 -103 -73 -111 -177
-215 -213 -215 -34 0 -69 32 -123 113 -46 68 -48 75 -47 137 1 79 32 193 85
320 95 223 227 412 428 610 147 145 158 153 511 363 500 298 844 572 1105 881
275 326 418 639 476 1041 18 120 18 436 0 550 -46 298 -178 572 -371 765 -302
301 -761 453 -1328 437 -263 -7 -452 -45 -662 -136 -217 -94 -425 -263 -540
-440 -14 -21 -16 -4 -15 197 0 257 9 233 -126 350 -393 343 -1109 593 -2034
712 -157 20 -614 60 -691 60 -18 0 -23 8 -28 45 -4 24 -23 76 -42 114 -72 145
-251 271 -454 321 -113 28 -307 35 -413 15z m5388 -1839 c506 -87 745 -369
745 -879 0 -132 -20 -289 -50 -390 -133 -441 -629 -926 -1443 -1409 -93 -55
-205 -127 -249 -161 -324 -244 -659 -704 -803 -1101 l-32 -89 -7 184 c-8 210
-18 411 -43 859 -10 185 -17 466 -18 680 0 417 3 449 101 1030 31 179 60 354
66 390 14 90 22 100 37 48 17 -56 72 -166 119 -237 85 -128 241 -264 282 -245
24 11 310 420 310 443 0 9 -26 43 -58 76 -128 133 -152 295 -68 471 87 184
291 300 606 344 91 13 398 4 505 -14z m-9555 -292 c261 -43 453 -160 535 -329
85 -173 59 -349 -70 -476 -30 -30 -55 -62 -55 -72 0 -22 286 -436 306 -444 33
-12 73 14 168 110 122 123 185 223 236 378 l37 109 17 -97 c36 -216 96 -596
113 -728 27 -207 23 -669 -10 -1295 -24 -438 -45 -900 -48 -1045 l-1 -50 -16
40 c-134 333 -425 747 -680 968 -121 105 -157 130 -372 259 -815 490 -1288
950 -1425 1388 -85 272 -69 653 35 860 89 175 238 301 440 370 218 74 533 95
790 54z"/>
</g>
</svg>
