<?xml version="1.0" encoding="utf-8"?>
<!-- Generator: Adobe Illustrator 23.1.0, SVG Export Plug-In . SVG Version: 6.00 Build 0)  -->
<svg version="1.1" baseProfile="basic" id="Layer_1"
	 xmlns="http://www.w3.org/2000/svg" xmlns:xlink="http://www.w3.org/1999/xlink" x="0px" y="0px" viewBox="0 0 1920 1080"
	 xml:space="preserve">
<g>
	<circle cx="669.8" cy="129.2" r="21.2"/>
	<path d="M628.5,200c0-22.8,18.5-41.3,41.3-41.3S711,177.2,711,200"/>
</g>
<g>
	<g>
		<path d="M835.4,142.5h-5.8v-7.7c0-14.8-12-26.8-26.8-26.8c-14.8,0-26.8,12-26.8,26.8v7.7h-5.8c-1.1,0-1.9,0.9-1.9,1.9v47.9
			c0,4.2,3.4,7.7,7.7,7.7h53.7c4.2,0,7.7-3.4,7.7-7.7v-47.9C837.3,143.4,836.5,142.5,835.4,142.5z M808.6,182.5
			c0.1,0.5-0.1,1.1-0.5,1.5c-0.4,0.4-0.9,0.6-1.4,0.6H799c-0.5,0-1.1-0.2-1.4-0.6s-0.5-0.9-0.5-1.5l1.2-10.9c-2-1.4-3.1-3.7-3.1-6.2
			c0-4.2,3.4-7.7,7.7-7.7s7.7,3.4,7.7,7.7c0,2.5-1.2,4.7-3.1,6.2L808.6,182.5z M818.2,142.5h-30.7v-7.7c0-8.5,6.9-15.3,15.3-15.3
			s15.3,6.9,15.3,15.3V142.5z"/>
	</g>
</g>
<g>
	<g>
		<path d="M909.6,111c-17.3,0-31.4,14.1-31.4,31.4c0,21.5,28.1,53,29.3,54.3c1.1,1.3,3.1,1.2,4.2,0c1.2-1.3,29.3-32.9,29.3-54.3
			C941,125.1,926.9,111,909.6,111z M909.6,158.2c-8.7,0-15.8-7.1-15.8-15.8s7.1-15.8,15.8-15.8c8.7,0,15.8,7.1,15.8,15.8
			S918.3,158.2,909.6,158.2z"/>
	</g>
</g>
<g>
	<path d="M1022.5,103.5c-11,0-20,9-20,20c0,0.5,0,1,0.1,1.4h5c0-0.5-0.1-0.9-0.1-1.4c0-8.3,6.7-15,15-15s15,6.7,15,15
		c0,0.5,0,1-0.1,1.4h5c0-0.5,0.1-0.9,0.1-1.4C1042.5,112.5,1033.5,103.5,1022.5,103.5z"/>
	<path d="M1061,193.8c0,5.6-4.6,10.2-10.2,10.2h-56.7c-5.6,0-10.2-4.6-10.2-10.2l5.9-61.8c0-5.6,4.6-7.2,10.2-7.2h44.8
		c5.6,0,10.2,1.6,10.2,7.2L1061,193.8z"/>
</g>
<g>
	<g>
		<circle cx="1145.8" cy="129.2" r="21.2"/>
		<path d="M1104.5,200c0-22.8,18.5-41.3,41.3-41.3s41.3,18.5,41.3,41.3"/>
	</g>
	<g>
		<path d="M1205.2,146h-2.2c-3.2,0-5.9-2.6-5.9-5.9v-32.2c0-3.2,2.6-5.9,5.9-5.9h2.2c3.2,0,5.9,2.6,5.9,5.9v32.2
			C1211.1,143.4,1208.4,146,1205.2,146z"/>
		<path d="M1183.1,125.1v-2.2c0-3.2,2.6-5.9,5.9-5.9h32.2c3.2,0,5.9,2.6,5.9,5.9v2.2c0,3.2-2.6,5.9-5.9,5.9h-32.2
			C1185.7,130.9,1183.1,128.3,1183.1,125.1z"/>
	</g>
</g>
<path d="M789.7,948c-2.9,0-5.2-1.3-5.3-4.2l0.2-54.7l-39.9-29.6l-42.1,29.7v54.5c0,2.9-2.4,4.3-5.3,4.3s-5.3-1.4-5.3-4.3v-57.2
	c0-1.7,0.8-3.3,2.2-4.3l47.5-33.5c1.9-1.3,4.4-1.3,6.2,0.1l45,33.5c1.3,1,2.1,2.5,2.1,4.1l-0.1,57.2C795,946.6,792.7,948,789.7,948
	C789.8,948,789.7,948,789.7,948z"/>
<g>
	<path d="M1017,948h-17.4c-3.6,0-6.5-2.9-6.5-6.5v-45.7c0-3.6,2.9-6.5,6.5-6.5h17.4c3.6,0,6.5,2.9,6.5,6.5v45.7
		C1023.5,945.1,1020.5,948,1017,948z"/>
	<path d="M1096.8,948h-16c-4,0-7.2-3.3-7.2-7.2v-57.4c0-4,3.3-7.2,7.2-7.2h16c4,0,7.2,3.3,7.2,7.2v57.4
		C1104.1,944.7,1100.8,948,1096.8,948z"/>
	<path d="M1055.4,948h-15.9c-4,0-7.3-3.3-7.3-7.3v-83.4c0-4,3.3-7.3,7.3-7.3h15.9c4,0,7.3,3.3,7.3,7.3v83.4
		C1062.7,944.7,1059.4,948,1055.4,948z"/>
</g>
<path d="M743.1,369h-72.1c-8.2,0-14.9,6.7-14.9,14.9v72.1c0,8.2,6.7,14.9,14.9,14.9H701v-36.1h-12V417h12v-12.2
	c0-9.9,8-17.9,17.9-17.9h18.1v17.9H719V417h18.1l-3,17.9H719V471h24.1c8.2,0,14.9-6.7,14.9-14.9v-72.1
	C758,375.7,751.3,369,743.1,369z"/>
<g>
	<path d="M844.4,392c-15.2,0-27.5,12.3-27.5,27.5c0,15.2,12.3,27.5,27.5,27.5c15.2,0,27.5-12.3,27.5-27.5
		C871.9,404.3,859.6,392,844.4,392L844.4,392z M844.4,437.4c-9.9,0-17.9-8-17.9-17.9s8-17.9,17.9-17.9c9.9,0,17.9,8,17.9,17.9
		C862.3,429.4,854.3,437.4,844.4,437.4z"/>
	<path d="M866.5,366.3c-9.9-0.5-34.3-0.4-44.2,0c-8.7,0.4-16.3,2.5-22.5,8.7c-10.3,10.3-9,24.2-9,44.6c0,20.9-1.2,34.4,9,44.6
		c10.4,10.3,24.4,9,44.6,9c20.7,0,27.8,0,35.1-2.8c9.9-3.9,17.4-12.7,18.2-28.7c0.5-9.9,0.4-34.3,0-44.2
		C896.8,378.6,886.7,367.2,866.5,366.3L866.5,366.3z M882.1,457.3c-6.8,6.8-16.1,6.2-37.8,6.2c-22.3,0-31.3,0.3-37.8-6.2
		c-7.5-7.5-6.2-19.5-6.2-37.8c0-24.7-2.5-42.5,22.2-43.7c5.7-0.2,7.4-0.3,21.7-0.3l0.2,0.1c23.8,0,42.5-2.5,43.6,22.3
		c0.3,5.7,0.3,7.4,0.3,21.7C888.3,441.6,888.8,450.6,882.1,457.3L882.1,457.3z"/>
	<circle cx="873" cy="390.9" r="6.4"/>
</g>
<g>
	<g>
		<path d="M1016.2,364H959c-15.7,0-28.7,12.9-28.7,28.8V450c0,15.7,12.9,28.7,28.7,28.7h57.2c15.8,0,28.8-12.9,28.8-28.8v-57.2
			C1045,376.9,1032.1,364,1016.2,364z M1022,440.2c-0.3,0.5-0.9,1.1-2,1.6c-1.5,0.7-3.7,1.3-6.7,1.7c-0.3,0.1-0.5,0.3-0.7,0.5
			s-0.3,0.9-0.5,1.7l-0.1,0.5c-0.1,0.4-0.2,0.8-0.3,1.2c-0.2,0.5-0.5,0.7-1,0.7c-0.3,0-0.7,0-1.5-0.2c-1-0.2-2.3-0.5-3.9-0.5
			c-1,0-1.9,0.1-2.8,0.3c-1.9,0.4-3.6,1.5-5.5,2.7c-2.5,1.7-5.2,3.7-9.4,3.7c-0.2,0-0.4,0-0.5,0s-0.1,0-0.2,0s-0.2,0-0.2,0
			c-4.2,0-6.9-2-9.5-3.7c-1.7-1.2-3.4-2.4-5.4-2.7c-0.9-0.2-1.9-0.3-2.8-0.3c-1.6,0-2.9,0.3-3.8,0.5h-0.1c-0.5,0.1-1,0.2-1.5,0.2
			c-0.5,0-0.9-0.2-1.1-0.7c-0.4-0.6-0.5-1.1-0.6-1.5l-0.1-0.3c-0.2-0.7-0.3-1.4-0.5-1.7c-0.1-0.3-0.4-0.5-0.6-0.5
			c-3-0.5-5.3-1.1-6.8-1.7c-1-0.5-1.7-1-2-1.5c-0.1-0.2-0.1-0.4-0.1-0.5s0-0.1,0-0.2c0.4-0.4,0.5-0.5,0.8-0.6
			c2.4-0.4,4.6-1.3,6.5-2.5c1.6-1,3.2-2.4,4.6-4c2.4-2.7,3.5-5.4,3.7-5.8v-0.1c0.6-1.2,0.7-2.3,0.4-3.1c-0.7-1.6-2.9-2.4-4.5-2.8
			l-0.3-0.1c-0.3-0.1-0.5-0.2-0.7-0.3c-1.1-0.5-1.9-0.9-2.4-1.4c-0.7-0.6-0.8-1.3-0.7-1.6c0.1-0.5,0.5-1,1.1-1.4
			c0.8-0.5,1.9-0.6,2.5-0.3c2.1,1,3.8,1.3,5.1,0.6c0.4-0.2,0.5-0.5,0.5-0.9c0-0.5-0.1-1.1-0.1-1.6v-0.1c-0.3-4.7-0.6-10.6,0.8-14
			c1.1-2.4,2.5-4.4,4.2-6c1.5-1.4,3.1-2.5,5-3.3c3.3-1.5,6.3-1.6,7.8-1.6h1.4c1.5,0,4.6,0.2,7.8,1.6c1.9,0.8,3.5,1.9,5,3.3
			c1.7,1.6,3.2,3.6,4.2,6c1.5,3.4,1.1,9.3,0.8,13.9v0.3c0,0.4-0.1,0.6-0.1,1v0.5c0,0.4,0.2,0.7,0.5,0.9s0.8,0.3,1.3,0.3
			c0,0,0.1,0,0.2,0c1-0.1,2.1-0.4,3.3-0.9c0.5-0.2,0.9-0.2,1.1-0.2c0.5,0,0.8,0.1,1.3,0.3c1,0.4,1.7,1.1,1.7,1.8
			c0,0.3-0.1,0.7-0.6,1.3c-0.5,0.5-1.4,1-2.5,1.5c-0.2,0.1-0.5,0.2-0.6,0.2l-0.3,0.1c-1.5,0.5-3.7,1.2-4.5,2.8
			c-0.4,0.8-0.3,1.9,0.4,3.2c0,0.1,0,0.1,0.1,0.2c0.8,1.8,5.4,10.7,14.7,12.3c0.4,0.1,0.6,0.4,0.6,0.8
			C1022.1,439.9,1022,440.1,1022,440.2z"/>
	</g>
</g>
<path d="M1149.4,431c0,0-10-4.8-11.2-3c-0.8,1.2-3.2,4-3.9,4.8c-0.7,0.8-1.4,0.9-2.7,0.3c-1.2-0.6-5.2-1.9-9.9-6.1
	c-3.6-3.3-6.1-7.3-6.8-8.5c-1.2-2.1,1.3-2.4,3.6-6.7c0.4-0.9,0.2-1.5-0.1-2.1c-0.3-0.6-2.8-6.6-3.8-9.1c-1-2.4-2-2.1-2.8-2.1
	c-2.4-0.2-4.1-0.2-5.6,1.4c-6.6,7.3-5,14.8,0.7,22.8c11.1,14.6,17.1,17.3,27.9,21c2.9,0.9,5.6,0.8,7.7,0.5c2.4-0.4,7.2-3,8.3-5.9
	c1-2.9,1-5.3,0.7-5.8C1151.4,431.9,1150.6,431.6,1149.4,431L1149.4,431z"/>
<path d="M1161.7,386.5c-31.5-30.5-83.8-8.4-83.8,34.6c0,8.6,2.3,17,6.5,24.4l-7,25.3l26-6.8c32.4,17.5,72.5-5.7,72.5-42.9
	c0-13-5.1-25.3-14.3-34.5L1161.7,386.5z M1167.8,421c0,31.3-34.4,50.9-61.6,34.9l-1.5-0.9l-15.4,4l4.1-15l-1-1.5
	c-16.9-26.9,2.5-62.1,34.6-62.1c10.9,0,21.1,4.2,28.8,11.9C1163.6,400,1167.8,410.2,1167.8,421L1167.8,421z"/>
<g>
	<path d="M1217.6,693.5c-18,13.7-43.7,10.2-57.4-7.8c-13.7-18-10.2-43.7,7.8-57.4c18-13.7,43.7-10.2,57.4,7.8
		S1235.5,679.9,1217.6,693.5z M1173.2,635.1c-14.2,10.8-17,31.2-6.2,45.4c10.8,14.2,31.2,17,45.4,6.2c14.2-10.8,17-31.2,6.2-45.4
		C1207.8,627.1,1187.4,624.3,1173.2,635.1z"/>
	<path d="M1202.8,696.7l19.5-14.8l17.8,23.4c4.1,5.4,3,13.1-2.3,17.1l0,0c-5.4,4.1-13.1,3-17.1-2.3L1202.8,696.7z"/>
</g>
<g>
	<g>
		<path d="M1053.1,622.7c-29.7,0-53.8,24.1-53.8,53.8c0,29.7,24.1,53.8,53.8,53.8s53.8-24.1,53.8-53.8
			C1106.9,646.8,1082.8,622.7,1053.1,622.7z M1074.9,691.9c0.9,0.9,0.9,2.3,0,3.2l-3.2,3.2c-0.9,0.9-2.3,0.9-3.2,0l-15.4-15.4
			l-15.4,15.4c-0.9,0.9-2.3,0.9-3.2,0l-3.2-3.2c-0.9-0.9-0.9-2.3,0-3.2l15.4-15.4l-15.4-15.4c-0.9-0.9-0.9-2.3,0-3.2l3.2-3.2
			c0.9-0.9,2.3-0.9,3.2,0l15.4,15.4l15.4-15.4c0.9-0.9,2.3-0.9,3.2,0l3.2,3.2c0.9,0.9,0.9,2.3,0,3.2l-15.4,15.4L1074.9,691.9z"/>
	</g>
</g>
<g>
	<g>
		<g>
			<polygon points="614,697.7 614,716.7 633,716.7 689.1,660.6 670.1,641.6 			"/>
			<path d="M703.8,638.8L691.9,627c-2-2-5.2-2-7.2,0l-9.3,9.3l19,19l9.3-9.3C705.7,644,705.7,640.8,703.8,638.8z"/>
		</g>
	</g>
</g>
<g>
	<path d="M922,866l7-7c1.3-1.3,1.3-3.3,0-4.6c-1.3-1.3-3.3-1.3-4.6,0l-7,7c-1.3,1.3-1.3,3.3,0,4.6C918.6,867.2,920.7,867.2,922,866z
		"/>
	<path d="M937.1,881.3h-7c-1.8,0-3.3,1.5-3.3,3.3s1.5,3.3,3.3,3.3h7c1.8,0,3.3-1.5,3.3-3.3S938.9,881.3,937.1,881.3z"/>
	<path d="M898.8,856.5c1.8,0,3.3-1.5,3.3-3.3v-7c0-1.8-1.5-3.3-3.3-3.3s-3.3,1.5-3.3,3.3v7C895.5,855,897,856.5,898.8,856.5z"/>
	<path d="M840.8,924.1c-1.3,1.3-1.3,3.3,0,4.6l13.9,13.9c1.3,1.3,3.3,1.3,4.6,0l5.4-5.4l-18.5-18.5L840.8,924.1z"/>
	<path d="M897,926.7l-22.8,10.7l15.6,15.6c1.3,1.3,3.3,1.3,4.6,0l12.2-12.2c1.3-1.3,1.3-3.3,0-4.6L897,926.7z"/>
	<path d="M883.7,854.4c-0.7-0.7-1.8-1.1-2.9-0.9c-1,0.2-1.9,0.9-2.4,1.8L850.8,914l18.5,18.5l58.7-27.6c1-0.5,1.6-1.3,1.8-2.4
		s-0.2-2.1-0.9-2.9L883.7,854.4z"/>
</g>
<g>
	<path d="M956.9,650.2H839.1c-4.7,0-8.5-3.8-8.5-8.5l0,0c0-4.7,3.8-8.5,8.5-8.5h117.8c4.7,0,8.5,3.8,8.5,8.5l0,0
		C965.4,646.4,961.6,650.2,956.9,650.2z"/>
	<path d="M920.7,685h-82.5c-4.2,0-7.7-3.5-7.7-7.7v-1.7c0-4.2,3.5-7.7,7.7-7.7h82.5c4.2,0,7.7,3.5,7.7,7.7v1.7
		C928.4,681.5,924.9,685,920.7,685z"/>
	<path d="M885.1,718.8h-47.3c-4,0-7.2-3.2-7.2-7.2v-2.7c0-4,3.2-7.2,7.2-7.2h47.3c4,0,7.2,3.2,7.2,7.2v2.7
		C892.3,715.6,889,718.8,885.1,718.8z"/>
	<path d="M773.6,726.2L773.6,726.2c-3.7,0-6.6-3-6.6-6.6V636c0-3.7,3-6.6,6.6-6.6h0c3.7,0,6.6,3,6.6,6.6v83.6
		C780.2,723.2,777.2,726.2,773.6,726.2z"/>
	<path d="M778,723.9l-2.6,2.8c-1.8,1.9-4.8,2-6.7,0.2L740.9,701c-1.9-1.8-2-4.8-0.2-6.7l1.3-1.4c2.5-2.7,6.7-2.8,9.4-0.3l26.4,24.6
		C779.7,719,779.8,722,778,723.9z"/>
	<path d="M770.4,725.3l1.3,1.4c1.8,1.9,4.8,2,6.7,0.2l27.8-25.9c1.9-1.8,2-4.8,0.2-6.7l-2.6-2.8c-1.8-1.9-4.8-2-6.7-0.2l-26.4,24.6
		C768.1,718.4,767.9,722.6,770.4,725.3z"/>
</g>
</svg>
