<?xml version="1.0" encoding="utf-8"?>
<!-- Generator: Adobe Illustrator 23.1.0, SVG Export Plug-In . SVG Version: 6.00 Build 0)  -->
<svg version="1.1" baseProfile="basic" id="Layer_1"
	 xmlns="http://www.w3.org/2000/svg" xmlns:xlink="http://www.w3.org/1999/xlink" x="0px" y="0px" viewBox="0 0 512 512"
	 xml:space="preserve">
<g>
	<path d="M110.3,481.1H30.1C13.5,481.1,0,467.5,0,451l0-210.5c0-16.5,13.5-30.1,30.1-30.1h80.2c16.5,0,30.1,13.5,30.1,30.1V451
		C140.3,467.5,126.8,481.1,110.3,481.1z"/>
	<path d="M478,481.1h-73.8c-18.3,0-33.2-15-33.2-33.2V183.5c0-18.3,15-33.2,33.2-33.2H478c18.3,0,33.2,15,33.2,33.2v264.3
		C511.2,466.1,496.2,481.1,478,481.1z"/>
	<path d="M287.2,481.1H214c-18.5,0-33.6-15.1-33.6-33.6V63.6c0-18.5,15.1-33.6,33.6-33.6h73.2c18.5,0,33.6,15.1,33.6,33.6v383.9
		C320.8,466,305.6,481.1,287.2,481.1z"/>
</g>
</svg>
