<?xml version="1.0" encoding="utf-8"?>
<!-- Generator: Adobe Illustrator 23.1.0, SVG Export Plug-In . SVG Version: 6.00 Build 0)  -->
<svg version="1.1" baseProfile="basic" id="Layer_1"
	 xmlns="http://www.w3.org/2000/svg" xmlns:xlink="http://www.w3.org/1999/xlink" x="0px" y="0px" viewBox="0 0 512 512"
	 xml:space="preserve">
<g>
	<path d="M312.3,349.7c-79.9,60.7-194.3,45.1-255-34.8s-45.1-194.3,34.8-255s194.3-45.1,255,34.8S392.2,289,312.3,349.7z
		 M115.1,90.2c-63.2,48-75.6,138.5-27.5,201.7s138.5,75.6,201.7,27.5s75.6-138.5,27.5-201.7S178.3,42.2,115.1,90.2z"/>
	<path d="M246.9,363.9l86.5-65.7L412.3,402c18.1,23.8,13.4,58-10.4,76.1l0,0c-23.8,18.1-58,13.4-76.1-10.4L246.9,363.9z"/>
</g>
</svg>
