<?xml version="1.0" encoding="utf-8"?>
<!-- Generator: Adobe Illustrator 23.1.0, SVG Export Plug-In . SVG Version: 6.00 Build 0)  -->
<svg version="1.1" baseProfile="basic" id="Layer_1"
	 xmlns="http://www.w3.org/2000/svg" xmlns:xlink="http://www.w3.org/1999/xlink" x="0px" y="0px" viewBox="0 0 512 512"
	 xml:space="preserve">
<g>
	<path d="M492.6,194.4H225.9c-10.6,0-19.4-8.7-19.4-19.4v0c0-10.6,8.7-19.4,19.4-19.4h266.8c10.6,0,19.4,8.7,19.4,19.4v0
		C512,185.6,503.3,194.4,492.6,194.4z"/>
	<path d="M410.7,273.1H223.9c-9.6,0-17.4-7.8-17.4-17.4v-4c0-9.6,7.8-17.4,17.4-17.4h186.8c9.6,0,17.4,7.8,17.4,17.4v4
		C428.1,265.3,420.3,273.1,410.7,273.1z"/>
	<path d="M330,349.7H222.8c-9,0-16.3-7.3-16.3-16.3v-6.1c0-9,7.3-16.3,16.3-16.3H330c9,0,16.3,7.3,16.3,16.3v6.1
		C346.3,342.4,339,349.7,330,349.7z"/>
	<path d="M77.4,366.5L77.4,366.5c-8.3,0-15.1-6.8-15.1-15.1V162.1c0-8.3,6.8-15.1,15.1-15.1h0c8.3,0,15.1,6.8,15.1,15.1v189.3
		C92.5,359.7,85.7,366.5,77.4,366.5z"/>
	<path d="M87.4,361.3l-5.9,6.3c-4,4.3-10.9,4.6-15.2,0.5l-63-58.7c-4.3-4-4.6-10.9-0.5-15.2l2.9-3.1c5.6-6.1,15.2-6.4,21.3-0.8
		l59.8,55.7C91.2,350.1,91.5,356.9,87.4,361.3z"/>
	<path d="M70.3,364.4l2.9,3.1c4,4.3,10.9,4.6,15.2,0.5l63-58.7c4.3-4,4.6-10.9,0.5-15.2l-5.9-6.3c-4-4.3-10.9-4.6-15.2-0.5
		l-59.8,55.7C65,348.8,64.7,358.4,70.3,364.4z"/>
</g>
</svg>
