<?xml version="1.0" encoding="utf-8"?>
<!-- Generator: Adobe Illustrator 23.1.0, SVG Export Plug-In . SVG Version: 6.00 Build 0)  -->
<svg version="1.1" baseProfile="basic" id="Layer_1"
	 xmlns="http://www.w3.org/2000/svg" xmlns:xlink="http://www.w3.org/1999/xlink" x="0px" y="0px" viewBox="0 0 512 512"
	 xml:space="preserve">
<g>
	<g>
		<circle cx="180.6" cy="187.4" r="79.1"/>
		<path d="M26.7,451.4c0-85,68.9-153.9,153.9-153.9s153.9,68.9,153.9,153.9"/>
	</g>
	<g>
		<path d="M402.4,250.1H394c-12.1,0-21.9-9.9-21.9-21.9V107.8c0-12.1,9.9-21.9,21.9-21.9h8.4c12.1,0,21.9,9.9,21.9,21.9v120.3
			C424.3,240.2,414.4,250.1,402.4,250.1z"/>
		<path d="M316.8,172v-8.4c0-12.1,9.9-21.9,21.9-21.9h120.3c12.1,0,21.9,9.9,21.9,21.9v8.4c0,12.1-9.9,21.9-21.9,21.9H338.8
			C326.7,193.9,316.8,184,316.8,172z"/>
	</g>
</g>
</svg>
